<?xml version="1.0" encoding="UTF-8"?>
<svg id="Layer_2" data-name="Layer 2" xmlns="http://www.w3.org/2000/svg" viewBox="0 0 174.02 174.02">
  <defs>
    <style>
      .cls-1 {
        fill: #034750;
      }
    </style>
  </defs>
  <polygon class="cls-1" points="87.46 13.47 87.46 65.7 73.6 61.1 61.05 65.56 61.05 12.37 52.25 12.37 52.25 78.03 73.7 70.41 96.26 77.89 96.26 13.47 87.46 13.47"/>
  <path class="cls-1" d="M146.17,154.69h-3.09c-4.96,0-8.99-4.03-8.99-8.99s4.03-8.99,8.99-8.99h3.01c1.02,0,1.84-.82,1.84-1.84v-2.94s0-.05,0-.08V14.46c0-2.68-2.18-4.86-4.86-4.86H44.72c-10.32,0-18.71,8.39-18.71,18.71v117.39c0,10.32,8.39,18.71,18.71,18.71h101.45c1.02,0,1.84-.82,1.84-1.84v-6.04c0-1.02-.82-1.84-1.84-1.84ZM35.73,28.31c0-4.96,4.03-8.99,8.99-8.99h93.5v107.67H44.72c-3.26,0-6.32.84-8.99,2.31V28.31ZM44.72,154.69c-4.96,0-8.99-4.03-8.99-8.99s4.03-8.99,8.99-8.99h81.96c-1.5,2.74-2.31,5.83-2.31,8.99s.81,6.25,2.31,8.99H44.72Z"/>
</svg>