<?xml version="1.0" encoding="UTF-8"?>
<svg id="Layer_2" data-name="Layer 2" xmlns="http://www.w3.org/2000/svg" viewBox="0 0 174.02 174.02">
  <defs>
    <style>
      .cls-1 {
        fill: #6dbe4b;
      }
    </style>
  </defs>
  <path class="cls-1" d="M87.01,9.8C44.37,9.8,9.8,44.37,9.8,87.01s34.57,77.21,77.21,77.21,77.21-34.57,77.21-77.21S129.65,9.8,87.01,9.8ZM124.09,75.83l-38.82,38.98c-1.91,1.92-4.41,2.87-6.92,2.87s-4.97-.94-6.87-2.83l-21.5-21.31c-3.83-3.8-3.86-9.98-.06-13.81,3.8-3.83,9.98-3.86,13.81-.06l14.58,14.45,31.94-32.08c3.8-3.82,9.99-3.83,13.81-.03,3.82,3.81,3.84,9.99.03,13.81Z"/>
</svg>