<?xml version="1.0" encoding="UTF-8"?>
<svg id="Layer_3" data-name="Layer 3" xmlns="http://www.w3.org/2000/svg" viewBox="0 0 174.02 174.02">
  <defs>
    <style>
      .cls-1 {
        fill: #034750;
      }
    </style>
  </defs>
  <g id="Group_539" data-name="Group 539">
    <path id="Path_1063" data-name="Path 1063" class="cls-1" d="M23.76,165.28h39.66c8.6,0,15.6-8.12,15.6-18.11v-32.69c0-9.98-7-18.11-15.6-18.11H23.76c-8.6,0-15.6,8.12-15.6,18.11v32.69c0,9.98,7,18.11,15.6,18.11"/>
    <path id="Path_1064" data-name="Path 1064" class="cls-1" d="M110.59,165.28h39.66c8.6,0,15.6-8.12,15.6-18.11v-32.69c0-9.98-7-18.11-15.6-18.11h-39.66c-8.6,0-15.6,8.12-15.6,18.11v32.69c0,9.98,7,18.11,15.6,18.11"/>
    <path id="Path_1065" data-name="Path 1065" class="cls-1" d="M23.76,77.64h39.66c8.6,0,15.6-8.12,15.6-18.11V26.84c0-9.98-7-18.1-15.6-18.1H23.76c-8.6,0-15.6,8.12-15.6,18.1v32.69c0,9.98,7,18.11,15.6,18.11"/>
    <path id="Path_1066" data-name="Path 1066" class="cls-1" d="M110.59,77.64h39.66c8.6,0,15.6-8.12,15.6-18.11V26.84c0-9.98-7-18.1-15.6-18.1h-39.66c-8.6,0-15.6,8.12-15.6,18.1v32.69c0,9.98,7,18.11,15.6,18.11"/>
  </g>
</svg>