<?xml version="1.0" encoding="UTF-8"?>
<svg id="Layer_2" data-name="Layer 2" xmlns="http://www.w3.org/2000/svg" viewBox="0 0 175.1 175.03">
  <defs>
    <style>
      .cls-1 {
        fill: #fff;
      }

      .cls-2 {
        fill: #9f3323;
      }
    </style>
  </defs>
  <g id="Group_599" data-name="Group 599">
    <g>
      <path id="Path_740" data-name="Path 740" class="cls-2" d="M87.55,13.22C46.52,13.22,13.25,46.48,13.25,87.52s33.26,74.3,74.3,74.3,74.3-33.26,74.3-74.3S128.58,13.22,87.55,13.22"/>
      <path class="cls-2" d="M87.55,167.62c-44.17,0-80.1-35.93-80.1-80.1S43.38,7.42,87.55,7.42s80.1,35.93,80.1,80.1-35.93,80.1-80.1,80.1ZM87.55,19.02c-37.77,0-68.49,30.73-68.49,68.49s30.73,68.49,68.49,68.49,68.49-30.73,68.49-68.49S125.32,19.02,87.55,19.02Z"/>
    </g>
    <path id="Path_1096" data-name="Path 1096" class="cls-1" d="M122.39,106.48l-18.98-18.98,18.96-18.96c4.38-4.38,4.38-11.48,0-15.85s-11.47-4.38-15.85,0l-18.96,18.96-18.95-18.95c-4.38-4.38-11.47-4.38-15.85,0s-4.38,11.47,0,15.85l18.97,18.97-18.95,18.95c-4.38,4.38-4.38,11.48,0,15.85s11.47,4.38,15.85,0l18.94-18.94,18.97,18.97c4.38,4.38,11.48,4.38,15.85,0,4.38-4.38,4.38-11.48,0-15.85"/>
  </g>
</svg>