<?xml version="1.0" encoding="UTF-8"?>
<svg id="Layer_2" data-name="Layer 2" xmlns="http://www.w3.org/2000/svg" viewBox="0 0 174.02 174.02">
  <defs>
    <style>
      .cls-1 {
        fill: #034750;
      }
    </style>
  </defs>
  <path class="cls-1" d="M45.16,148.31c12.28,8.34,26.65,12.75,41.56,12.75,40.83,0,74.06-33.22,74.06-74.06S127.55,12.95,86.72,12.95c-19.31,0-37.61,7.42-51.54,20.89-.74.72-1.92.71-2.65-.02l-10.44-10.44c-1.81-1.81-4.1-1.76-5.65-1.12-1.54.64-3.2,2.23-3.2,4.79v33.27c0,2.86,2.32,5.18,5.18,5.18h33.27c2.55,0,4.15-1.65,4.79-3.2.64-1.55.68-3.84-1.12-5.65l-9.45-9.45c-.36-.36-.56-.85-.55-1.36s.22-.99.58-1.34c11.06-10.58,25.54-16.41,40.77-16.41,32.48,0,58.91,26.43,58.91,58.91s-26.43,58.91-58.91,58.91c-11.86,0-23.28-3.5-33.05-10.13-1.3-.88-2.78-1.3-4.24-1.3-2.43,0-4.81,1.16-6.28,3.32-2.35,3.45-1.44,8.17,2.01,10.52Z"/>
  <path class="cls-1" d="M85.46,50.66c-3.83,0-6.94,3.11-6.94,6.94v31.3c0,2.68,1.53,5.01,3.76,6.16l19.26,19.26c1.36,1.35,3.13,2.03,4.91,2.03s3.55-.68,4.91-2.03c2.71-2.71,2.71-7.1,0-9.81l-18.95-18.95v-27.96c0-3.83-3.11-6.94-6.94-6.94Z"/>
</svg>