<?xml version="1.0" encoding="UTF-8"?>
<svg id="Layer_2" data-name="Layer 2" xmlns="http://www.w3.org/2000/svg" viewBox="0 0 174.02 174.02">
  <defs>
    <style>
      .cls-1 {
        fill: #034750;
      }
    </style>
  </defs>
  <path class="cls-1" d="M160.13,79.83l-34.38-36.57c-4.04-4.29-10.78-4.5-15.07-.47-2.23,2.1-3.36,4.93-3.36,7.77,0,2.62.96,5.24,2.89,7.3l18.15,19.32h-58.94c-5.52,0-10,4.47-10,10s4.47,10,10,10h58.91l-18.12,19.33c-4.03,4.3-3.81,11.04.48,15.07,4.3,4.03,11.04,3.81,15.07-.49l34.38-36.66c3.85-4.1,3.84-10.49,0-14.59Z"/>
  <path class="cls-1" d="M59.42,154.08h-20.38c-15.46,0-28.04-12.58-28.04-28.04V47.98c0-15.46,12.58-28.04,28.04-28.04h20.97c5.29,0,9.58,4.29,9.58,9.58s-4.29,9.58-9.58,9.58h-20.97c-4.9,0-8.88,3.98-8.88,8.88v78.06c0,4.9,3.98,8.88,8.88,8.88h20.38c5.29,0,9.58,4.29,9.58,9.58s-4.29,9.58-9.58,9.58Z"/>
</svg>