<?xml version="1.0" encoding="UTF-8"?>
<svg id="Layer_2" data-name="Layer 2" xmlns="http://www.w3.org/2000/svg" viewBox="0 0 174.02 174.02">
  <defs>
    <style>
      .cls-1 {
        fill: #034750;
      }
    </style>
  </defs>
  <path class="cls-1" d="M161.4,142.81l-37.06-32.7c18.55-25.45,15.98-60.63-6.56-83.17-12.12-12.12-28.24-18.79-45.42-18.79s-33.3,6.67-45.42,18.79c-12.11,12.11-18.78,28.24-18.78,45.42s6.67,33.31,18.78,45.42c12.11,12.12,28.24,18.79,45.42,18.79,13.8,0,26.78-4.22,37.75-12.23l32.7,37.07c2.39,2.71,5.85,4.34,9.5,4.45h.38c3.47,0,6.86-1.4,9.31-3.85,2.56-2.56,3.97-6.1,3.86-9.73-.11-3.62-1.74-7.07-4.45-9.47ZM72.36,117.56c-12.1,0-23.45-4.7-31.98-13.22-8.53-8.53-13.22-19.88-13.22-31.98s4.7-23.45,13.22-31.97c8.53-8.52,19.88-13.22,31.97-13.22s23.45,4.7,31.98,13.22c17.63,17.63,17.63,46.32,0,63.95-8.53,8.53-19.88,13.22-31.97,13.22Z"/>
</svg>