<?xml version="1.0" encoding="UTF-8"?>
<svg id="Layer_2" data-name="Layer 2" xmlns="http://www.w3.org/2000/svg" viewBox="0 0 174.02 174.02">
  <defs>
    <style>
      .cls-1 {
        fill: #034750;
      }
    </style>
  </defs>
  <path class="cls-1" d="M141.21,61.35c0-4.36-3.53-7.89-7.89-7.89H40.69c-4.36,0-7.89,3.53-7.89,7.89s3.53,7.89,7.89,7.89h92.64c4.36,0,7.89-3.53,7.89-7.89Z"/>
  <path class="cls-1" d="M73.33,79.21h-32.64c-4.36,0-7.89,3.53-7.89,7.89s3.53,7.89,7.89,7.89h32.64c4.36,0,7.89-3.53,7.89-7.89s-3.53-7.89-7.89-7.89Z"/>
  <path class="cls-1" d="M73.33,104.97h-32.64c-4.36,0-7.89,3.53-7.89,7.89s3.53,7.89,7.89,7.89h32.64c4.36,0,7.89-3.53,7.89-7.89s-3.53-7.89-7.89-7.89Z"/>
  <path class="cls-1" d="M137.87,83.14c-5.53-5.62-12.98-8.74-20.96-8.79h-.05c-16.22.2-29.12,12.86-29.37,28.83-.1,6.49,1.8,12.45,5.13,17.32v30.66c0,1.31.81,2.53,2.14,3.21,1.33.69,2.99.74,4.39.15l17.82-7.55,18.78,7.58c.62.25,1.29.37,1.95.37.83,0,1.67-.19,2.4-.58,1.31-.69,2.11-1.9,2.11-3.2v-32.4c2.58-4.38,4-9.39,4.06-14.64.09-7.94-2.89-15.39-8.39-20.99ZM116.44,84.47c.14,0,.28,0,.42,0,5.1,0,9.9,1.98,13.56,5.59,3.75,3.69,5.79,8.62,5.75,13.89.01,10.56-8.64,19.16-19.29,19.17h-.03c-10.6,0-19.28-8.59-19.34-19.17-.06-10.52,8.42-19.26,18.92-19.48ZM118.88,139.38c-1.26-.51-2.73-.5-3.98.03l-13.28,5.62v-16.05c4.29,2.56,9.31,4.07,14.75,4.15.17,0,.33,0,.49,0,5.93,0,11.56-1.7,16.33-4.87v16.89l-14.32-5.78Z"/>
  <path class="cls-1" d="M148.88,26.29H25.13c-10.61,0-19.24,8.63-19.24,19.24v82.95c0,10.61,8.63,19.24,19.24,19.24h59.49v-14.85H25.13c-2.42,0-4.39-1.97-4.39-4.39V45.53c0-2.42,1.97-4.39,4.39-4.39h123.75c2.42,0,4.39,1.97,4.39,4.39v82.95c0,2.31-1.8,4.19-4.07,4.36v14.87c10.46-.17,18.92-8.73,18.92-19.23V45.53c0-10.61-8.63-19.24-19.24-19.24Z"/>
</svg>