<?xml version="1.0" encoding="UTF-8"?>
<svg id="Layer_2" data-name="Layer 2" xmlns="http://www.w3.org/2000/svg" viewBox="0 0 174.02 174.02">
  <defs>
    <style>
      .cls-1 {
        fill: #034750;
      }
    </style>
  </defs>
  <path class="cls-1" d="M87.3,91.65h-.2c-7.93-.05-15.24-3.07-20.58-8.5-5.41-5.5-8.46-13.11-8.39-20.9h0c.05-7.79,3.15-15.1,8.71-20.59,5.51-5.44,12.77-8.42,20.47-8.42h.23c7.73.06,15.01,3.19,20.5,8.82,5.51,5.64,8.46,13.03,8.33,20.81-.28,16.17-13.04,28.77-29.07,28.77Z"/>
  <path class="cls-1" d="M87.68,7C41.34,6.59,7.26,44.66,7.2,86.93c-.06,42.07,32.97,79.19,79.65,80.09,45.74-.56,79.96-36.77,79.96-79.76,0-46.06-37.02-79.88-79.13-80.26ZM133.37,136.78c-.33.66-1.08,1.33-2.33,2.39-12.52,10.53-27.55,16-40.93,16-3.18.01-6.22-.14-9.15-.41-.43-.04-.85-.07-1.28-.12-.39-.04-.77-.1-1.16-.15-.7-.09-1.41-.17-2.1-.28-13.12-1.99-23.79-7.08-33.41-15.05-1.28-1.06-2.02-1.7-2.32-2.35-4.11-3.83-7.75-8.16-10.82-12.89-12.91-18.07-17.97-52.94,4.24-80.01,6.53-7.96,14.52-14.02,23.26-18.18.23-.11.47-.22.71-.33.62-.29,1.23-.57,1.86-.84,8.3-3.6,17.44-5.61,27.06-5.61,5.27,0,10.4.62,15.33,1.76,11.72,2.63,22.87,8.35,32.09,17.27,27.37,26.5,24.7,65.22,9.16,86.79-2.93,4.38-6.37,8.4-10.21,11.99Z"/>
  <path class="cls-1" d="M86.8,97.37c-20.97.01-36.69,9.28-48.35,25.17,1.78,2.5,3.7,4.9,5.87,7.1,11,11.17,26.05,17.39,42.38,17.49h.4c20.13,0,37.71-9.68,48.53-24.75-11.94-15.98-27.84-25.03-48.83-25.02Z"/>
</svg>