<?xml version="1.0" encoding="utf-8"?>
<!-- Generator: Adobe Illustrator 24.2.3, SVG Export Plug-In . SVG Version: 6.00 Build 0)  -->
<svg version="1.1" id="Layer_1" xmlns="http://www.w3.org/2000/svg" xmlns:xlink="http://www.w3.org/1999/xlink" x="0px" y="0px"
	 viewBox="0 0 450 72" style="enable-background:new 0 0 450 72;" xml:space="preserve">
<style type="text/css">
	.st0{fill:#FFFFFF;}
	.st1{enable-background:new    ;}
	.st2{fill:#6DBE4B;}
</style>
<g>
	<path class="st0" d="M114.2,17.7c-0.9,0.2-1.5,0.5-1.8,0.9c-0.4,0.6-1.1,1.9-2.2,4.5c-2,4.7-6.4,14.8-8.4,20.1
		c-0.2,0.2-0.8,0.3-1.3,0.3c-0.4,0-0.8-0.1-1.1-0.3c-0.4-1-1.1-2.4-1.5-3.6l-1.7-3.8c-0.6-1.3-1.1-2.5-1.5-3.1
		c-0.4,0.7-0.8,1.7-1.4,2.8l-1.9,3.9c-0.6,1.3-1.1,2.5-1.7,3.8c-0.2,0.2-0.8,0.3-1.4,0.3c-0.4,0-0.7-0.1-1.1-0.3
		c-0.7-1.7-2.3-5.3-3.6-8.4l-6.6-14.3c-1.1-2.4-1.3-2.6-2.7-2.9l-1-0.2c-0.3-0.4-0.3-1.2,0.2-1.4c1.5,0.1,3.2,0.1,5.3,0.1
		c1.8,0,3.4,0,4.9-0.1c0.3,0.2,0.5,1.2,0.1,1.4l-0.7,0.1c-0.7,0.1-1,0.3-1,0.6c0,0.3,0.8,2.2,2.1,5l4,8.9c1.1,2.5,1.7,3.6,2.2,4.6
		c0.5-0.8,1.4-2.7,2.1-4.2l0.5-1.2c0.3-0.6,0.4-1.2,0.4-1.4c0-0.2-0.3-1.1-0.4-1.5L89,19.9c-0.9-2-1.2-2.3-2.8-2.5l-0.4,0
		c-0.4-0.3-0.3-1.3,0.1-1.4c1.7,0.1,3.3,0.1,5.1,0.1c2.1,0,3.6,0,4.7-0.1c0.5,0.1,0.4,1.2,0.2,1.4l-0.7,0.2
		c-0.5,0.1-1.1,0.3-1.1,0.6c0,0.3,0.2,0.8,0.4,1.2l1.2,2.8c0.4,0.9,0.9,1.9,1.3,2.7l1.3-2.8l0.4-0.8c0.7-1.5,1.2-2.8,1.2-3
		c0-0.3-0.2-0.4-0.8-0.6l-1.5-0.3c-0.3-0.3-0.2-1.2,0.1-1.4c1.2,0.1,2.6,0.1,4,0.1c1.6,0,3.1,0,4.1-0.1c0.3,0.2,0.4,1.2,0,1.5
		l-1.1,0.2c-1.4,0.3-1.7,0.3-3.1,2.7c-1,1.7-2,3.7-2.5,4.7c-0.4,0.7-0.9,1.9-0.9,2.1c0,0.1,0,0.4,0.3,1l1.9,4.1
		c1.1,2.2,1.6,3.5,1.9,4.1c1.9-4.7,4.2-9.8,6.1-14.8c0.3-0.7,1.1-2.8,1.1-3.3c0-0.4-0.7-0.6-1.2-0.7l-0.9-0.2
		c-0.3-0.4-0.2-1.2,0.1-1.4c1.3,0.1,2.9,0.1,4.2,0.1c1.4,0,2.6,0,3.7-0.1c0.4,0.2,0.4,1.1,0.1,1.4L114.2,17.7z"/>
	<path class="st0" d="M121.6,31.5c0.9,0,1.1-0.1,0.8-1.2l-1.1-3.3c-0.6-1.7-1.3-3.9-1.7-4.8c-0.3,0.9-1.1,3.1-1.7,5l-1,3
		c-0.4,1.1-0.2,1.2,0.8,1.2C117.7,31.5,121.6,31.5,121.6,31.5z M116.9,33.7c-1,0-1.1,0-1.3,0.8l-1.6,4.7c-0.2,0.8-0.3,1.1-0.3,1.5
		c0,0.2,0.5,0.5,1.7,0.7l1.2,0.2c0.2,0.3,0.3,1.2-0.1,1.4c-1.4-0.1-2.9-0.1-4.6-0.1c-1.4,0-2.3,0.1-4.2,0.1
		c-0.4-0.2-0.4-1.1-0.1-1.4l1.1-0.1c1-0.1,1.8-0.5,2.5-2c0.7-1.6,1.5-3.6,2.6-6.5l3.7-9.9c0.9-2.5,1.6-4,1.5-5.1
		c1.9-0.5,3.4-2.4,3.5-2.4c0.5,0,0.8,0.2,0.9,0.8c0.3,1.2,0.8,2.7,1.8,5.5l5.5,15.9c0.9,2.4,1.2,3.4,2.7,3.6l1.5,0.2
		c0.2,0.2,0.3,1.2,0,1.4c-1.9-0.1-4.1-0.1-6.2-0.1c-2,0-3.6,0-5.5,0.1c-0.4-0.2-0.5-1.1-0.1-1.4l1.3-0.2c0.9-0.2,1.1-0.5,1.1-0.7
		c0-0.3-0.3-1.3-0.8-2.8l-1.1-3.5c-0.2-0.7-0.5-0.7-1.9-0.7H116.9z"/>
	<path class="st0" d="M141.4,19.1c0-1,0-1.2-1-1.2h-2.5c-2.9,0-3.8,1.6-5,4.6c-0.5,0.2-1.3,0.2-1.5-0.4c0.9-2.8,1.1-5.3,1.3-6.9
		c0.2-0.1,0.4-0.2,0.6-0.2s0.4,0,0.6,0.2c0.2,0.7,0.3,0.9,3.4,0.9h15.1c2.7,0,3.3,0,3.6-0.9c0.2-0.1,0.3-0.1,0.5-0.1
		c0.2,0,0.5,0.2,0.6,0.3c-0.4,1.4-0.7,4.7-0.6,7c-0.2,0.4-1.3,0.4-1.5,0.1c-0.7-2.6-1.3-4.5-4.3-4.5h-2.4c-1,0-1.1,0.1-1.1,1.2V37
		c0,3.8,0.2,4.1,2.1,4.3l1.6,0.2c0.3,0.2,0.3,1.2,0,1.4c-2.6-0.1-4.6-0.1-6.5-0.1c-1.9,0-4,0-6.9,0.1c-0.3-0.2-0.3-1.2,0-1.4
		l1.8-0.2c1.8-0.2,2.1-0.6,2.1-4.3L141.4,19.1L141.4,19.1z"/>
	<path class="st0" d="M167.5,26.6c0,1.1,0,1.2,1.1,1.2h2.8c2.1,0,2.6-0.3,3-2.2l0.2-1c0.3-0.3,1.3-0.3,1.5,0
		c-0.1,1.3-0.1,2.8-0.1,4.3s0,3,0.1,4.3c-0.2,0.4-1.2,0.4-1.5,0l-0.2-1c-0.4-1.9-0.9-2.3-3-2.3h-2.8c-1.1,0-1.1,0-1.1,1.3V36
		c0,1.9,0.2,3.2,0.6,3.8c0.5,0.7,1.3,1,4.3,1c3.5,0,4.9-0.1,7.1-4.7c0.3-0.5,1.3-0.3,1.5,0.2c-0.2,2.1-1.1,5.4-1.7,6.5
		c-2.1-0.1-6-0.1-9.3-0.1h-5.3c-1.9,0-3.9,0-7,0.1c-0.3-0.2-0.3-1.2,0-1.4l1.9-0.3c1.8-0.3,2.1-0.5,2.1-4.3V21.9
		c0-3.7-0.2-3.9-2.1-4.3l-1-0.2c-0.4-0.2-0.3-1.2,0.1-1.4c1.9,0.1,3.9,0.1,5.8,0.1h8.6c2.6,0,4.9,0,5.4-0.1c0,0.7,0.3,3.6,0.5,6.3
		c-0.2,0.5-1.1,0.5-1.5,0.2c-0.4-1.4-1-2.6-1.5-3.2c-0.8-0.8-2-1.3-4-1.3h-3.2c-1.3,0-1.3,0.1-1.3,1.6L167.5,26.6L167.5,26.6z"/>
	<path class="st0" d="M191.3,27.8c0,1.4,0.1,1.5,2.5,1.5c1.5,0,2.3-0.4,3.1-1.1c0.7-0.7,1.4-2,1.4-4.4c0-3.6-2.1-6-5.3-6
		c-1.7,0-1.7,0.1-1.7,2.1L191.3,27.8L191.3,27.8z M185.8,22.6c0-4-0.1-4.5-1.8-4.7l-1.1-0.2c-0.4-0.2-0.4-1.2,0.1-1.4
		c3-0.2,6.2-0.4,10-0.4c3.4,0,6.4,0.5,7.9,1.5c2.4,1.4,3.6,3.4,3.6,6c0,3.6-2.4,5.1-4.3,6.1c-0.4,0.2-0.4,0.4-0.2,0.9
		c2.7,5.4,4.3,8.5,6.3,10.1c1.1,0.8,2.1,1.1,2.7,1.1c0.4,0.2,0.4,0.8,0.2,1c-0.6,0.3-1.9,0.4-3.2,0.4c-3.7,0-6.1-1.3-7.9-4.3
		c-1.3-2.1-2.2-4.1-3.2-6.3c-0.5-1.1-1.1-1.4-2.1-1.4c-1.4,0-1.5,0.1-1.5,0.9v5c0,3.7,0.2,4,2.1,4.3l1.1,0.2c0.3,0.2,0.3,1.2,0,1.4
		c-2.1-0.1-4-0.1-5.9-0.1c-2,0-3.8,0-5.9,0.1c-0.3-0.2-0.3-1.2,0-1.4l1.1-0.2c1.8-0.3,2.1-0.6,2.1-4.3L185.8,22.6L185.8,22.6z"/>
	<path class="st0" d="M222.3,22.6c0-4.1-0.1-4.6-1.8-4.8l-1.3-0.2c-0.4-0.2-0.4-1.1,0.1-1.4c2.7-0.2,5.8-0.4,9.3-0.4
		c3.4,0,5.7,0.4,7.4,1.1c2.5,0.9,4.9,3.1,4.9,7c0,6.6-6.7,7.6-8.8,7.6c-0.5,0-0.9,0-1.3,0c-0.3-0.2-0.4-0.9-0.1-1.1
		c3.4-1,4-3.4,4-6.4s-1.5-6.2-5.2-6.2c-1.5,0-1.6,0.5-1.6,2.1V37c0,3.8,0.2,4.1,2.1,4.4l1.3,0.2c0.4,0.2,0.4,1.1,0,1.4
		c-2.3-0.1-4.3-0.1-6.2-0.1s-3.9,0-6.1,0.1c-0.4-0.2-0.5-1.2-0.1-1.4l1.1-0.2c1.8-0.3,2.1-0.6,2.1-4.4L222.3,22.6L222.3,22.6z"/>
	<path class="st0" d="M252.2,27.8c0,1.4,0.1,1.5,2.5,1.5c1.5,0,2.3-0.4,3.1-1.1c0.7-0.7,1.5-2,1.5-4.4c0-3.6-2.1-6-5.3-6
		c-1.7,0-1.7,0.1-1.7,2.1L252.2,27.8L252.2,27.8z M246.6,22.6c0-4-0.1-4.5-1.8-4.7l-1.1-0.2c-0.4-0.2-0.4-1.2,0.1-1.4
		c3-0.2,6.2-0.4,10-0.4c3.4,0,6.4,0.5,7.9,1.5c2.4,1.4,3.6,3.4,3.6,6c0,3.6-2.4,5.1-4.3,6.1c-0.4,0.2-0.4,0.4-0.2,0.9
		c2.7,5.4,4.3,8.5,6.3,10.1c1,0.8,2.1,1.1,2.7,1.1c0.4,0.2,0.4,0.8,0.2,1c-0.6,0.3-1.9,0.4-3.2,0.4c-3.7,0-6.1-1.3-7.9-4.3
		c-1.3-2.1-2.2-4.1-3.2-6.3c-0.5-1.1-1.1-1.4-2.1-1.4c-1.4,0-1.5,0.1-1.5,0.9v5c0,3.7,0.2,4,2.1,4.3l1.1,0.2c0.3,0.2,0.3,1.2,0,1.4
		c-2.1-0.1-4-0.1-5.9-0.1c-2,0-3.8,0-5.9,0.1c-0.3-0.2-0.3-1.2,0-1.4l1.1-0.2c1.8-0.3,2.1-0.6,2.1-4.3L246.6,22.6L246.6,22.6z"/>
	<path class="st0" d="M283.4,17.3c-5,0-7.6,4.6-7.6,11.4c0,4.9,1.7,12.9,8.3,12.9c5.3,0,7.4-5.2,7.4-11.7
		C291.5,22.9,288.4,17.3,283.4,17.3 M297.9,29.3c0,8.8-5.9,14.1-14.6,14.1c-8.1,0-14-5.3-14-13.8c0-8,6-14.2,14.4-14.2
		C292.1,15.4,297.9,21.1,297.9,29.3"/>
	<path class="st0" d="M326.4,38.2c0,1.7,0.1,2.5,0.9,2.7c0.2,0.2,0.1,0.8-0.1,1c-0.7,0.1-1.7,0.2-2.8,0.6c-1.4,0.5-4.9,1-7.2,1
		c-2.8,0-5.1-0.3-8-1.4c-4.7-1.9-8-6.4-8-12.2c0-5.1,2.3-9.5,7.1-12.2c2.8-1.5,6-2.1,9.5-2.1c4.5,0,6.7,1,8,1
		c0.1,1.2,0.2,4.1,0.6,6.5c-0.2,0.5-1.3,0.5-1.5,0.1c-1.3-3.8-3.8-5.7-7.6-5.7c-6.4,0-9.5,5.3-9.5,11.7c0,5.8,2,9.2,4.6,11
		c1.9,1.3,4,1.5,5.5,1.5c2.3,0,2.8-0.5,2.8-3.1V36c0-2.2-0.2-2.4-2.2-2.7l-1.8-0.3c-0.5-0.2-0.5-1.2,0-1.4c2.9,0.1,4.9,0.1,6.8,0.1
		c1.9,0,3.9,0,5.3-0.1c0.3,0.2,0.3,1.2,0,1.4l-0.9,0.2c-1.2,0.2-1.5,0.6-1.5,2.8V38.2z"/>
	<path class="st0" d="M339.4,27.8c0,1.4,0.1,1.5,2.5,1.5c1.5,0,2.3-0.4,3.1-1.1c0.7-0.7,1.5-2,1.5-4.4c0-3.6-2.1-6-5.3-6
		c-1.7,0-1.7,0.1-1.7,2.1L339.4,27.8L339.4,27.8z M333.8,22.6c0-4-0.1-4.5-1.8-4.7l-1.1-0.2c-0.4-0.2-0.4-1.2,0.1-1.4
		c3-0.2,6.2-0.4,10-0.4c3.4,0,6.4,0.5,7.9,1.5c2.4,1.4,3.6,3.4,3.6,6c0,3.6-2.4,5.1-4.3,6.1c-0.4,0.2-0.4,0.4-0.2,0.9
		c2.7,5.4,4.3,8.5,6.3,10.1c1,0.8,2.1,1.1,2.7,1.1c0.4,0.2,0.4,0.8,0.2,1c-0.6,0.3-1.9,0.4-3.2,0.4c-3.7,0-6.1-1.3-7.9-4.3
		c-1.3-2.1-2.2-4.1-3.2-6.3c-0.5-1.1-1.1-1.4-2.1-1.4c-1.4,0-1.5,0.1-1.5,0.9v5c0,3.7,0.2,4,2.1,4.3l1.1,0.2c0.3,0.2,0.3,1.2,0,1.4
		c-2.1-0.1-4-0.1-6-0.1c-2,0-3.8,0-5.9,0.1c-0.3-0.2-0.3-1.2,0-1.4l1.1-0.2c1.8-0.3,2.1-0.6,2.1-4.3L333.8,22.6L333.8,22.6z"/>
	<path class="st0" d="M369,31.5c0.9,0,1.1-0.1,0.8-1.2l-1-3.3c-0.6-1.7-1.3-3.9-1.7-4.8c-0.3,0.9-1.1,3.1-1.7,5l-1,3
		c-0.4,1.1-0.2,1.2,0.9,1.2C365.2,31.5,369,31.5,369,31.5z M364.4,33.7c-1,0-1.1,0-1.3,0.8l-1.6,4.7c-0.2,0.8-0.3,1.1-0.3,1.5
		c0,0.2,0.5,0.5,1.7,0.7l1.2,0.2c0.2,0.3,0.3,1.2-0.1,1.4c-1.4-0.1-2.9-0.1-4.6-0.1c-1.4,0-2.3,0.1-4.2,0.1
		c-0.5-0.2-0.4-1.1-0.1-1.4l1.1-0.1c1-0.1,1.8-0.5,2.5-2c0.7-1.6,1.5-3.6,2.5-6.5l3.7-9.9c0.9-2.5,1.6-4,1.5-5.1
		c1.9-0.5,3.4-2.4,3.5-2.4c0.5,0,0.8,0.2,0.9,0.8c0.3,1.2,0.8,2.7,1.8,5.5l5.5,15.9c0.9,2.4,1.2,3.4,2.7,3.6l1.5,0.2
		c0.2,0.2,0.3,1.2,0,1.4c-1.9-0.1-4.1-0.1-6.2-0.1c-2,0-3.6,0-5.5,0.1c-0.4-0.2-0.5-1.1-0.1-1.4l1.3-0.2c0.9-0.2,1.1-0.5,1.1-0.7
		c0-0.3-0.3-1.3-0.8-2.8l-1.1-3.5c-0.2-0.7-0.5-0.7-1.9-0.7H364.4z"/>
	<path class="st0" d="M382.7,17.4c-0.3-0.3-0.3-1.3,0.1-1.4c1.4,0.1,3.1,0.1,5.1,0.1c1.3,0,2.5,0,4-0.1c0,2.5,1.4,5,3.2,8.8l2.7,5.7
		c0.4,0.8,1.8,3.4,2.4,4.4c0.5-1,1.2-2.2,2.3-4.6l2.1-4.5c1.9-4.2,3-6.3,3.8-9.8c1.9,0.2,2.8,0.1,4,0.1c1.3,0,3.2,0,4.6-0.1
		c0.5,0.2,0.5,1,0.1,1.4l-1.2,0.2c-1.7,0.3-2.5,0.8-2.5,2.9c0,8.3,0.1,12.7,0.3,17.8c0.1,1.9,0.2,2.8,1.8,3l1.3,0.2
		c0.3,0.3,0.3,1.3-0.1,1.4c-1.9-0.1-3.6-0.1-5.6-0.1c-1.8,0-4,0-6,0.1c-0.5-0.2-0.5-1.1-0.1-1.4l1.2-0.2c1.9-0.2,1.9-0.7,1.9-3.2
		l-0.1-10.5V23H408c-3,6.5-6.2,13.2-8.9,20.1c-0.2,0.2-0.5,0.3-0.8,0.3c-0.4,0-0.8-0.1-1-0.2c-1.6-5-6.5-15-8.8-20.3h-0.1
		c-0.2,2.6-0.2,4.4-0.2,6.5c0,2.6-0.1,6.7-0.1,9.1c0,2,0.2,2.6,1.9,2.8l1.6,0.2c0.3,0.3,0.2,1.2-0.1,1.4c-1.5-0.1-3.2-0.1-4.8-0.1
		c-1.3,0-2.8,0-4.5,0.1c-0.5-0.2-0.5-1.2-0.2-1.4l0.7-0.1c2.1-0.4,2.3-0.6,2.5-3.1c0.2-2,0.3-5.5,0.6-9.3c0.2-2.7,0.2-6,0.2-8.2
		c0-2.3-0.9-2.9-2.5-3.2L382.7,17.4z"/>
	<path class="st0" d="M427.2,43.4c-3.7,0-6-1-6.9-1.5c-0.8-0.9-1.3-3.8-1.3-6.5c0.3-0.5,1.2-0.6,1.5-0.1c0.8,2.6,3.5,6.3,7,6.3
		c3,0,4.4-2.1,4.4-4.1c0-3.3-3.1-5.2-5.5-6.4c-2.9-1.5-6.1-3.9-6.1-7.9c0-4.6,3.5-7.7,9.4-7.7c1.3,0,3,0.2,4.6,0.6
		c0.5,0.2,0.9,0.2,1.4,0.3c0.3,0.9,0.7,3.1,0.7,5.8c-0.2,0.5-1.2,0.5-1.6,0.1c-0.7-2.1-2.4-5-5.3-5c-2.7,0-4.1,1.7-4.1,3.8
		c0,1.9,1.7,3.6,3.7,4.6l2.7,1.4c2.5,1.3,5.7,3.7,5.7,8.1C437.4,40.2,433.3,43.4,427.2,43.4"/>
	<path class="st0" d="M48.3,7.4H26c-9.2,0-16.7,7.5-16.7,16.7v3.4c1.2-0.2,2.4-0.4,3.6-0.4v0c6.6-0.1,12.8,3.3,18.3,9.3
		c5.5,6,11.7,9.4,18.3,9.3c5.5-0.1,10.8-2.5,15.5-6.9V24.1C64.9,14.9,57.5,7.4,48.3,7.4"/>
	<path class="st0" d="M41.3,50.7c-5.5-5.9-11.6-9.3-18.3-9.2c0,0-6.3-0.3-13.8,5.3c0.2,9.1,7.6,16.4,16.7,16.4h22.3
		c3.7,0,7-1.2,9.8-3.2C52,59.5,46.3,56.2,41.3,50.7"/>
	<g class="st1">
		<path class="st2" d="M73.9,59.3c0.9,0.5,2.2,1,3.5,1c1.2,0,2.4-0.6,2.4-1.8c0-0.8-0.6-1.4-2-2.1c-1.6-0.9-3.1-2-3.1-4
			c0-3,2.6-4.9,5.9-4.9c1.8,0,2.9,0.4,3.5,0.8l-1,2.7c-0.5-0.3-1.6-0.7-2.8-0.7c-1.5,0-2.3,0.8-2.3,1.6c0,0.9,0.9,1.4,2.2,2.1
			c1.8,1,3,2.2,3,4c0,3.3-2.8,5-6.1,5c-2.1,0-3.6-0.5-4.3-1.1L73.9,59.3z"/>
		<path class="st2" d="M91.8,62.8c0-0.6,0.1-1.4,0.2-2.2h-0.1c-1,1.8-2.4,2.4-3.6,2.4c-2,0-3.3-1.5-3.3-3.8c0-3.7,2.4-7.6,7.8-7.6
			c1.3,0,2.7,0.2,3.6,0.5l-1.2,5.7c-0.3,1.4-0.5,3.5-0.4,4.9H91.8z M92.7,54.2c-0.2,0-0.6-0.1-0.9-0.1c-2.1,0-3.6,2.5-3.6,4.6
			c0,1.1,0.4,1.8,1.3,1.8c1,0,2.1-1.1,2.6-3.8L92.7,54.2z"/>
		<path class="st2" d="M105,62.4c-0.7,0.3-1.8,0.6-3.1,0.6c-2.7,0-4.6-1.6-4.6-4.4c0-3.9,3-6.9,7.1-6.9c0.9,0,1.7,0.2,2.2,0.4
			l-0.8,2.4c-0.4-0.2-0.8-0.3-1.5-0.3c-2.3,0-3.7,1.9-3.7,4c0,1.5,0.9,2.2,2.1,2.2c0.9,0,1.6-0.2,2.2-0.4L105,62.4z"/>
		<path class="st2" d="M106.7,62.8l1.2-6.5c0.3-1.6,0.4-3.5,0.6-4.4h2.8c-0.1,0.7-0.1,1.5-0.2,2.2h0.1c0.8-1.4,2-2.5,3.5-2.5
			c0.2,0,0.4,0,0.6,0l-0.6,3.1c-0.2,0-0.3,0-0.5,0c-2,0-3,1.8-3.4,4l-0.8,4H106.7z"/>
		<path class="st2" d="M121.8,62.8c0-0.6,0.1-1.4,0.2-2.2h-0.1c-1,1.8-2.4,2.4-3.6,2.4c-2,0-3.3-1.5-3.3-3.8c0-3.7,2.4-7.6,7.8-7.6
			c1.3,0,2.7,0.2,3.6,0.5l-1.2,5.7c-0.3,1.4-0.5,3.5-0.4,4.9H121.8z M122.8,54.2c-0.2,0-0.6-0.1-0.9-0.1c-2.1,0-3.6,2.5-3.6,4.6
			c0,1.1,0.4,1.8,1.3,1.8c1,0,2.1-1.1,2.6-3.8L122.8,54.2z"/>
		<path class="st2" d="M127.2,62.8l1.4-7.3c0.2-1.4,0.4-2.6,0.6-3.5h2.8l-0.2,1.8h0c1-1.4,2.3-2,3.7-2c1.7,0,2.5,1.1,2.6,2
			c1-1.4,2.3-2,3.7-2c1.7,0,2.7,1.1,2.7,2.9c0,0.5-0.1,1.3-0.2,1.9l-1.2,6.3h-3.1l1.1-5.9c0.1-0.4,0.2-0.9,0.2-1.3
			c0-0.8-0.3-1.3-1.1-1.3c-1.1,0-2.1,1.4-2.5,3.6l-0.9,4.9h-3.1l1.1-6c0.1-0.4,0.2-0.9,0.2-1.2c0-0.7-0.2-1.3-1-1.3
			c-1.1,0-2.2,1.5-2.6,3.7l-0.9,4.9H127.2z"/>
		<path class="st2" d="M154.7,62.1c-1.3,0.6-2.8,0.8-4,0.8c-3.1,0-4.7-1.8-4.7-4.6c0-3.3,2.4-6.7,6.3-6.7c2.2,0,3.8,1.2,3.8,3.2
			c0,2.8-2.7,3.8-7,3.7c0,0.3,0.1,0.8,0.3,1.1c0.4,0.6,1.2,0.8,2.1,0.8c1.2,0,2.2-0.3,3-0.7L154.7,62.1z M151.9,54
			c-1.5,0-2.3,1.2-2.6,2.2c2.5,0,3.7-0.3,3.7-1.3C153,54.4,152.6,54,151.9,54z"/>
		<path class="st2" d="M156.7,62.8l1.4-7.3c0.3-1.4,0.4-2.6,0.6-3.5h2.8l-0.2,1.8h0c1-1.4,2.4-2,3.8-2c1.8,0,2.8,1.1,2.8,3
			c0,0.5-0.1,1.3-0.2,1.8l-1.2,6.3h-3.2l1.1-6c0.1-0.4,0.1-0.8,0.1-1.2c0-0.8-0.3-1.3-1.1-1.3c-1,0-2.3,1.3-2.7,3.7l-0.9,4.8H156.7z
			"/>
		<path class="st2" d="M175.4,48.9l-0.6,3h2.3l-0.5,2.4h-2.3l-0.7,3.7c-0.1,0.4-0.2,1-0.2,1.4c0,0.5,0.2,0.9,0.9,0.9
			c0.3,0,0.6,0,0.9,0l-0.4,2.5c-0.4,0.2-1.2,0.2-1.9,0.2c-1.9,0-2.8-1-2.8-2.3c0-0.6,0.1-1.2,0.2-2l0.8-4.3h-1.4l0.4-2.4h1.4
			l0.4-2.3L175.4,48.9z"/>
		<path class="st2" d="M188.3,56.1c0,4-2.7,6.9-6.5,6.9c-2.8,0-4.6-1.8-4.6-4.5c0-3.8,2.6-6.9,6.5-6.9
			C186.6,51.7,188.3,53.7,188.3,56.1z M180.5,58.5c0,1.3,0.6,2.1,1.7,2.1c1.8,0,2.7-2.6,2.7-4.4c0-1-0.4-2.1-1.7-2.1
			C181.4,54.1,180.5,56.8,180.5,58.5z"/>
		<path class="st2" d="M194.1,59.3c0.9,0.5,2.2,1,3.5,1c1.2,0,2.4-0.6,2.4-1.8c0-0.8-0.6-1.4-2-2.1c-1.6-0.9-3.1-2-3.1-4
			c0-3,2.6-4.9,5.9-4.9c1.8,0,2.9,0.4,3.5,0.8l-1,2.7c-0.5-0.3-1.6-0.7-2.8-0.7c-1.5,0-2.3,0.8-2.3,1.6c0,0.9,0.9,1.4,2.2,2.1
			c1.8,1,3,2.2,3,4c0,3.3-2.8,5-6.1,5c-2.1,0-3.6-0.5-4.3-1.1L194.1,59.3z"/>
		<path class="st2" d="M210.8,48.9l-0.6,3h2.3l-0.5,2.4h-2.3L209,58c-0.1,0.4-0.2,1-0.2,1.4c0,0.5,0.2,0.9,0.9,0.9
			c0.3,0,0.6,0,0.9,0l-0.4,2.5c-0.4,0.2-1.2,0.2-1.9,0.2c-1.9,0-2.8-1-2.8-2.3c0-0.6,0.1-1.2,0.2-2l0.8-4.3h-1.4l0.4-2.4h1.4
			l0.4-2.3L210.8,48.9z"/>
		<path class="st2" d="M219.4,62.8c0-0.6,0.1-1.4,0.2-2.2h-0.1c-1,1.8-2.4,2.4-3.6,2.4c-2,0-3.3-1.5-3.3-3.8c0-3.7,2.4-7.6,7.8-7.6
			c1.3,0,2.7,0.2,3.6,0.5l-1.2,5.7c-0.3,1.4-0.5,3.5-0.4,4.9H219.4z M220.4,54.2c-0.2,0-0.6-0.1-0.9-0.1c-2.1,0-3.6,2.5-3.6,4.6
			c0,1.1,0.4,1.8,1.3,1.8c1,0,2.1-1.1,2.6-3.8L220.4,54.2z"/>
		<path class="st2" d="M230.9,48.9l-0.6,3h2.3l-0.5,2.4h-2.3l-0.7,3.7c-0.1,0.4-0.2,1-0.2,1.4c0,0.5,0.2,0.9,0.9,0.9
			c0.3,0,0.6,0,0.9,0l-0.4,2.5c-0.4,0.2-1.2,0.2-1.9,0.2c-1.9,0-2.8-1-2.8-2.3c0-0.6,0.1-1.2,0.2-2l0.8-4.3h-1.4l0.4-2.4h1.4
			l0.4-2.3L230.9,48.9z"/>
		<path class="st2" d="M241.4,62.1c-1.3,0.6-2.8,0.8-4,0.8c-3.1,0-4.7-1.8-4.7-4.6c0-3.3,2.4-6.7,6.3-6.7c2.2,0,3.8,1.2,3.8,3.2
			c0,2.8-2.7,3.8-7,3.7c0,0.3,0.1,0.8,0.3,1.1c0.4,0.6,1.2,0.8,2.1,0.8c1.2,0,2.2-0.3,3-0.7L241.4,62.1z M238.6,54
			c-1.5,0-2.3,1.2-2.6,2.2c2.5,0,3.7-0.3,3.7-1.3C239.8,54.4,239.3,54,238.6,54z"/>
	</g>
</g>
</svg>
