<?xml version="1.0" encoding="utf-8"?>
<!-- Generator: Adobe Illustrator 24.2.3, SVG Export Plug-In . SVG Version: 6.00 Build 0)  -->
<svg version="1.1" id="Layer_1" xmlns="http://www.w3.org/2000/svg" xmlns:xlink="http://www.w3.org/1999/xlink" x="0px" y="0px"
	 viewBox="0 0 360 144" style="enable-background:new 0 0 360 144;" xml:space="preserve">
<style type="text/css">
	.st0{fill:#FFFFFF;}
	.st1{fill:#6DBE4B;}
</style>
<g>
	<g>
		<path class="st0" d="M163.12,30.35c-19.98,0-34.13,14.63-34.13,33.56c0,19.98,13.96,32.6,33.17,32.6
			c20.55,0,34.51-12.52,34.51-33.36C196.68,43.73,183.01,30.35,163.12,30.35z M163.98,92.11c-15.58,0-19.69-18.74-19.69-30.4
			c0-15.97,6.31-26.96,18.07-26.96c11.85,0,19.02,13.29,19.02,29.64C181.38,79.87,176.51,92.11,163.98,92.11z"/>
		<path class="st0" d="M326.05,34.08c-4.02-1.53-9.37-2.49-17.5-2.49c-8.09,0-13.42,0.44-19.23,0.4c-2.13-0.02-7.65-0.04-10.96-0.11
			c-2.87-0.06-6.79-0.1-9.85-0.29c-0.86,0.48-1.05,2.49-0.29,3.35l2.1,0.57c1.24,0.38,2.77,0.77,2.77,1.72
			c0,1.05-1.82,6.12-2.49,7.74c-4.59,11.66-9.85,23.8-14.44,34.89c-0.57-1.34-1.91-4.4-4.4-9.66l-4.49-9.66
			c-0.67-1.53-0.76-2.1-0.76-2.39c0-0.48,1.24-3.25,2.1-4.97c1.24-2.49,3.63-7.27,5.93-11.19c3.35-5.74,4.02-5.74,7.26-6.41
			l2.68-0.57c0.86-0.67,0.67-2.96-0.1-3.44c-2.49,0.19-6.02,0.29-9.75,0.29c-3.16,0-6.6-0.1-9.37-0.29
			c-0.86,0.48-0.96,2.68-0.29,3.35l3.44,0.67c1.53,0.38,1.91,0.67,1.91,1.34c0,0.57-1.15,3.44-2.77,7.07l-0.86,1.91l-2.96,6.5
			c-0.86-1.72-2.1-4.3-2.96-6.31l-2.87-6.6c-0.48-1.05-0.86-2.1-0.86-2.87c0-0.67,1.44-1.05,2.58-1.34l1.62-0.38
			c0.67-0.48,0.77-3.06-0.38-3.35c-2.48,0.19-6.12,0.29-10.99,0.29c-4.21,0-7.93-0.1-12.05-0.29c-1.05,0.38-1.24,2.58-0.29,3.35
			l0.96,0.1c3.63,0.38,4.3,1.05,6.5,5.83l9.18,20.17c0.38,0.96,1.05,2.96,1.05,3.54c0,0.57-0.29,1.82-0.96,3.35l-1.24,2.77
			c-1.53,3.44-3.73,7.93-4.87,9.85c-1.15-2.29-2.58-4.97-5.26-10.9l-9.46-21.13c-2.96-6.69-4.97-11.19-4.97-11.85
			c0-0.67,0.67-1.15,2.39-1.43l1.72-0.29c0.96-0.57,0.57-2.96-0.19-3.35c-3.63,0.19-7.36,0.29-11.57,0.29
			c-4.88,0-8.89-0.1-12.43-0.29c-1.05,0.48-1.15,2.39-0.38,3.35l2.39,0.48c3.16,0.67,3.73,1.15,6.31,6.79l15.58,33.75
			c3.25,7.17,7.08,15.77,8.6,19.79c0.86,0.48,1.53,0.76,2.58,0.76c1.43,0,2.77-0.29,3.25-0.76c1.53-3.15,2.58-5.93,4.02-8.99
			l4.4-9.27c1.24-2.68,2.39-4.97,3.25-6.6c0.86,1.43,2.1,4.3,3.44,7.36l4.02,9.08c1.15,2.68,2.58,6.12,3.63,8.41
			c0.67,0.48,1.53,0.76,2.58,0.76c1.24,0,2.58-0.29,3.15-0.76c4.68-12.43,15.11-36.23,19.79-47.42c2.58-6.02,3.83-8.53,4.89-10.06
			c0.77-1.11,2.61-2.12,4.37-2.37c1.38-0.19,3.33-0.27,5.43,0.19c4.09,0.9,3.66,3.39,3.72,12.69l0.03,32.43
			c0,8.89-0.57,9.56-4.88,10.32l-2.68,0.48c-1.05,0.48-0.86,2.68,0.19,3.25c5.16-0.19,9.75-0.29,14.34-0.29s9.27,0.1,14.63,0.29
			c1.05-0.57,1.05-2.77,0-3.25l-3.06-0.48c-4.3-0.67-4.88-1.43-4.88-10.32V40.87c0-3.82,0.19-4.88,3.73-4.88
			c8.6,0,12.24,7.65,12.24,14.72s-1.62,12.72-9.56,15.2c-0.67,0.57-0.48,2.1,0.29,2.58c1.05,0.1,1.91,0.1,3.06,0.1
			c5.07,0,20.84-2.29,20.84-17.97C337.71,41.34,331.88,36.28,326.05,34.08z"/>
	</g>
	<g>
		<path class="st0" d="M88.1,21.72H47.98c-16.62,0-30.09,13.47-30.09,30.1v6.04c2.12-0.44,4.28-0.67,6.48-0.69v-0.05
			c11.95-0.15,23.07,5.93,32.91,16.7c9.84,10.79,21.1,16.93,33.05,16.78c9.97-0.12,19.39-4.57,27.87-12.44V51.82
			C118.2,35.19,104.72,21.72,88.1,21.72z"/>
		<path class="st0" d="M75.64,99.61C65.78,88.9,54.68,82.83,42.74,82.98c0,0-11.4-0.47-24.84,9.55c0.32,16.35,13.66,29.5,30.09,29.5
			H88.1c6.57,0,12.65-2.11,17.6-5.68C94.88,115.53,84.66,109.54,75.64,99.61z"/>
	</g>
	<g>
		<path class="st1" d="M131.75,118.17c1.08,0.65,2.63,1.16,4.3,1.16c1.52,0,2.9-0.7,2.9-2.14c0-1.03-0.78-1.71-2.46-2.57
			c-1.95-1.06-3.79-2.46-3.79-4.85c0-3.68,3.22-5.93,7.2-5.93c2.22,0,3.52,0.49,4.3,0.92l-1.22,3.25c-0.6-0.33-1.9-0.84-3.41-0.81
			c-1.81,0-2.76,0.92-2.76,1.92c0,1.06,1.11,1.71,2.65,2.57c2.22,1.16,3.63,2.65,3.63,4.82c0,4.06-3.36,6.14-7.42,6.14
			c-2.54,0-4.36-0.65-5.22-1.3L131.75,118.17z"/>
		<path class="st1" d="M153.54,122.39c0.03-0.79,0.11-1.68,0.19-2.63h-0.08c-1.22,2.19-2.9,2.92-4.44,2.92
			c-2.38,0-4.01-1.84-4.01-4.6c0-4.47,2.95-9.23,9.47-9.23c1.57,0,3.28,0.3,4.39,0.65l-1.41,6.93c-0.32,1.71-0.57,4.3-0.51,5.96
			H153.54z M154.67,111.91c-0.3-0.05-0.68-0.11-1.06-0.11c-2.52,0-4.36,3.09-4.36,5.55c0,1.3,0.51,2.19,1.6,2.19
			c1.16,0,2.6-1.33,3.19-4.57L154.67,111.91z"/>
		<path class="st1" d="M169.64,121.98c-0.84,0.41-2.19,0.68-3.76,0.68c-3.28,0-5.58-1.98-5.58-5.41c0-4.71,3.6-8.39,8.63-8.39
			c1.14,0,2.11,0.22,2.68,0.46l-0.95,2.98c-0.46-0.19-1-0.32-1.79-0.32c-2.79,0-4.49,2.35-4.49,4.85c0,1.81,1.14,2.73,2.6,2.73
			c1.14,0,1.95-0.27,2.63-0.54L169.64,121.98z"/>
		<path class="st1" d="M171.72,122.39l1.49-7.88c0.38-2,0.54-4.22,0.68-5.36h3.38c-0.08,0.89-0.16,1.79-0.24,2.71h0.08
			c0.92-1.76,2.41-3,4.22-3c0.24,0,0.49,0,0.73,0.03l-0.76,3.79c-0.19-0.03-0.41-0.03-0.62-0.03c-2.49,0-3.65,2.22-4.14,4.82
			l-0.92,4.93H171.72z"/>
		<path class="st1" d="M190.16,122.39c0.03-0.79,0.11-1.68,0.19-2.63h-0.08c-1.22,2.19-2.9,2.92-4.44,2.92
			c-2.38,0-4.01-1.84-4.01-4.6c0-4.47,2.95-9.23,9.47-9.23c1.57,0,3.27,0.3,4.38,0.65l-1.41,6.93c-0.33,1.71-0.57,4.3-0.51,5.96
			H190.16z M191.29,111.91c-0.3-0.05-0.68-0.11-1.06-0.11c-2.52,0-4.36,3.09-4.36,5.55c0,1.3,0.51,2.19,1.6,2.19
			c1.16,0,2.6-1.33,3.19-4.57L191.29,111.91z"/>
		<path class="st1" d="M196.62,122.39l1.65-8.93c0.3-1.68,0.51-3.14,0.68-4.3h3.36l-0.24,2.14h0.05c1.19-1.71,2.82-2.44,4.52-2.44
			c2.11,0,3.03,1.33,3.14,2.49c1.19-1.71,2.84-2.49,4.55-2.49c2.06,0,3.25,1.3,3.25,3.55c0,0.57-0.11,1.6-0.24,2.27l-1.43,7.71
			h-3.76l1.33-7.23c0.11-0.54,0.19-1.11,0.19-1.62c0-0.92-0.41-1.57-1.33-1.57c-1.3,0-2.57,1.76-3.09,4.41l-1.11,6.01h-3.76
			l1.35-7.28c0.11-0.54,0.19-1.06,0.19-1.52c0-0.89-0.3-1.62-1.25-1.62c-1.33,0-2.71,1.87-3.19,4.47l-1.08,5.96H196.62z"/>
		<path class="st1" d="M230.19,121.63c-1.54,0.78-3.46,1.03-4.93,1.03c-3.79,0-5.74-2.14-5.74-5.58c0-4.03,2.92-8.23,7.71-8.23
			c2.68,0,4.6,1.49,4.6,3.95c0,3.38-3.28,4.6-8.58,4.47c0,0.38,0.14,0.97,0.41,1.35c0.51,0.68,1.41,1.03,2.54,1.03
			c1.43,0,2.65-0.32,3.71-0.84L230.19,121.63z M226.75,111.7c-1.81,0-2.84,1.49-3.11,2.73c3.03,0.03,4.55-0.41,4.55-1.6
			C228.18,112.16,227.64,111.7,226.75,111.7z"/>
		<path class="st1" d="M232.67,122.39l1.68-8.93c0.33-1.68,0.54-3.14,0.7-4.3h3.46l-0.27,2.19h0.05c1.25-1.73,2.9-2.49,4.66-2.49
			c2.17,0,3.38,1.33,3.38,3.6c0,0.6-0.11,1.6-0.22,2.25l-1.46,7.69h-3.9l1.38-7.34c0.08-0.46,0.13-1,0.13-1.49
			c0-0.92-0.32-1.57-1.3-1.57c-1.27,0-2.76,1.6-3.3,4.52l-1.11,5.87H232.67z"/>
		<path class="st1" d="M255.41,105.44l-0.7,3.71h2.82l-0.57,2.95h-2.81l-0.89,4.49c-0.11,0.54-0.22,1.22-0.22,1.68
			c0,0.65,0.27,1.11,1.11,1.11c0.35,0,0.73,0,1.08-0.05l-0.46,3.06c-0.49,0.19-1.46,0.3-2.3,0.3c-2.33,0-3.44-1.19-3.44-2.84
			c0-0.73,0.08-1.46,0.27-2.46l1.03-5.28h-1.68l0.54-2.95h1.71l0.54-2.79L255.41,105.44z"/>
		<path class="st1" d="M271.16,114.29c0,4.85-3.3,8.39-7.9,8.39c-3.36,0-5.6-2.19-5.6-5.47c0-4.6,3.19-8.36,7.9-8.36
			C269.11,108.85,271.16,111.29,271.16,114.29z M261.69,117.14c0,1.54,0.76,2.57,2.11,2.57c2.14,0,3.33-3.11,3.33-5.39
			c0-1.22-0.51-2.52-2.08-2.52C262.8,111.8,261.66,115.08,261.69,117.14z"/>
		<path class="st1" d="M278.25,118.17c1.08,0.65,2.63,1.16,4.3,1.16c1.52,0,2.9-0.7,2.9-2.14c0-1.03-0.79-1.71-2.46-2.57
			c-1.95-1.06-3.79-2.46-3.79-4.85c0-3.68,3.22-5.93,7.2-5.93c2.22,0,3.52,0.49,4.3,0.92l-1.22,3.25c-0.6-0.33-1.9-0.84-3.41-0.81
			c-1.81,0-2.76,0.92-2.76,1.92c0,1.06,1.11,1.71,2.65,2.57c2.22,1.16,3.63,2.65,3.63,4.82c0,4.06-3.36,6.14-7.42,6.14
			c-2.54,0-4.36-0.65-5.22-1.3L278.25,118.17z"/>
		<path class="st1" d="M298.6,105.44l-0.7,3.71h2.82l-0.57,2.95h-2.81l-0.89,4.49c-0.11,0.54-0.22,1.22-0.22,1.68
			c0,0.65,0.27,1.11,1.11,1.11c0.35,0,0.73,0,1.08-0.05l-0.46,3.06c-0.49,0.19-1.46,0.3-2.3,0.3c-2.33,0-3.44-1.19-3.44-2.84
			c0-0.73,0.08-1.46,0.27-2.46l1.03-5.28h-1.68l0.54-2.95h1.71l0.54-2.79L298.6,105.44z"/>
		<path class="st1" d="M309.11,122.39c0.03-0.79,0.11-1.68,0.19-2.63h-0.08c-1.22,2.19-2.9,2.92-4.44,2.92
			c-2.38,0-4.01-1.84-4.01-4.6c0-4.47,2.95-9.23,9.47-9.23c1.57,0,3.28,0.3,4.38,0.65l-1.41,6.93c-0.33,1.71-0.57,4.3-0.51,5.96
			H309.11z M310.24,111.91c-0.3-0.05-0.68-0.11-1.06-0.11c-2.52,0-4.36,3.09-4.36,5.55c0,1.3,0.51,2.19,1.6,2.19
			c1.16,0,2.6-1.33,3.19-4.57L310.24,111.91z"/>
		<path class="st1" d="M323.02,105.44l-0.7,3.71h2.81l-0.57,2.95h-2.81l-0.89,4.49c-0.11,0.54-0.22,1.22-0.22,1.68
			c0,0.65,0.27,1.11,1.11,1.11c0.35,0,0.73,0,1.08-0.05l-0.46,3.06c-0.49,0.19-1.46,0.3-2.3,0.3c-2.33,0-3.44-1.19-3.44-2.84
			c0-0.73,0.08-1.46,0.27-2.46l1.03-5.28h-1.68l0.54-2.95h1.71l0.54-2.79L323.02,105.44z"/>
		<path class="st1" d="M335.87,121.63c-1.54,0.78-3.46,1.03-4.93,1.03c-3.79,0-5.74-2.14-5.74-5.58c0-4.03,2.92-8.23,7.71-8.23
			c2.68,0,4.6,1.49,4.6,3.95c0,3.38-3.28,4.6-8.58,4.47c0,0.38,0.14,0.97,0.41,1.35c0.51,0.68,1.41,1.03,2.54,1.03
			c1.43,0,2.65-0.32,3.71-0.84L335.87,121.63z M332.44,111.7c-1.81,0-2.84,1.49-3.11,2.73c3.03,0.03,4.55-0.41,4.55-1.6
			C333.87,112.16,333.33,111.7,332.44,111.7z"/>
	</g>
</g>
</svg>
