<?xml version="1.0" encoding="utf-8"?>
<!-- Generator: Adobe Illustrator 24.2.3, SVG Export Plug-In . SVG Version: 6.00 Build 0)  -->
<svg version="1.1" id="Layer_1" xmlns="http://www.w3.org/2000/svg" xmlns:xlink="http://www.w3.org/1999/xlink" x="0px" y="0px"
	 viewBox="0 0 450 72" style="enable-background:new 0 0 450 72;" xml:space="preserve">
<style type="text/css">
	.st0{fill:#007C8A;}
	.st1{fill:#6DBE4B;}
	.st2{enable-background:new    ;}
</style>
<g>
	<path class="st0" d="M114.7,18c-0.9,0.2-1.5,0.5-1.8,0.9c-0.4,0.6-1.1,1.9-2.2,4.5c-2,4.7-6.4,14.8-8.4,20.1
		c-0.2,0.2-0.8,0.3-1.3,0.3c-0.4,0-0.8-0.1-1.1-0.3c-0.4-1-1.1-2.4-1.5-3.6l-1.7-3.8c-0.6-1.3-1.1-2.5-1.5-3.1
		c-0.4,0.7-0.8,1.7-1.4,2.8L92,39.7c-0.6,1.3-1.1,2.5-1.7,3.8c-0.2,0.2-0.8,0.3-1.4,0.3c-0.4,0-0.7-0.1-1.1-0.3
		c-0.7-1.7-2.3-5.3-3.6-8.4l-6.6-14.3c-1.1-2.4-1.3-2.6-2.7-2.9l-1-0.2c-0.3-0.4-0.3-1.2,0.2-1.4c1.5,0.1,3.2,0.1,5.3,0.1
		c1.8,0,3.4,0,4.9-0.1c0.3,0.2,0.5,1.2,0.1,1.4l-0.7,0.1c-0.7,0.1-1,0.3-1,0.6c0,0.3,0.8,2.2,2.1,5l4,8.9c1.1,2.5,1.7,3.6,2.2,4.6
		c0.5-0.8,1.4-2.7,2.1-4.2l0.5-1.2c0.3-0.6,0.4-1.2,0.4-1.4c0-0.2-0.3-1.1-0.4-1.5l-3.9-8.5c-0.9-2-1.2-2.3-2.8-2.5l-0.4,0
		c-0.4-0.3-0.3-1.3,0.1-1.4c1.7,0.1,3.3,0.1,5.1,0.1c2.1,0,3.6,0,4.7-0.1c0.5,0.1,0.4,1.2,0.2,1.4l-0.7,0.2
		c-0.5,0.1-1.1,0.3-1.1,0.6c0,0.3,0.2,0.8,0.4,1.2l1.2,2.8c0.4,0.9,0.9,1.9,1.3,2.7l1.3-2.8l0.4-0.8c0.7-1.5,1.2-2.8,1.2-3
		c0-0.3-0.2-0.4-0.8-0.6L98,17.8c-0.3-0.3-0.2-1.2,0.1-1.4c1.2,0.1,2.6,0.1,4,0.1c1.6,0,3.1,0,4.1-0.1c0.3,0.2,0.4,1.2,0,1.5
		l-1.1,0.2c-1.4,0.3-1.7,0.3-3.1,2.7c-1,1.7-2,3.7-2.5,4.7c-0.4,0.7-0.9,1.9-0.9,2.1c0,0.1,0,0.4,0.3,1l1.9,4.1
		c1.1,2.2,1.6,3.5,1.9,4.1c1.9-4.7,4.2-9.8,6.1-14.8c0.3-0.7,1.1-2.8,1.1-3.3c0-0.4-0.7-0.6-1.2-0.7l-0.9-0.2
		c-0.3-0.4-0.2-1.2,0.1-1.4c1.3,0.1,2.9,0.1,4.2,0.1c1.4,0,2.6,0,3.7-0.1c0.4,0.2,0.4,1.1,0.1,1.4L114.7,18z"/>
	<path class="st0" d="M122,31.9c0.9,0,1.1-0.1,0.8-1.2l-1.1-3.3c-0.6-1.7-1.3-3.9-1.7-4.8c-0.3,0.9-1.1,3.1-1.7,5l-1,3
		c-0.4,1.1-0.2,1.2,0.8,1.2H122z M117.4,34c-1,0-1.1,0-1.3,0.8l-1.6,4.7c-0.2,0.8-0.3,1.1-0.3,1.5c0,0.2,0.5,0.5,1.7,0.7l1.2,0.2
		c0.2,0.3,0.3,1.2-0.1,1.4c-1.4-0.1-2.9-0.1-4.6-0.1c-1.4,0-2.3,0.1-4.2,0.1c-0.4-0.2-0.4-1.1-0.1-1.4l1.1-0.1c1-0.1,1.8-0.5,2.5-2
		c0.7-1.6,1.5-3.6,2.6-6.5l3.7-9.9c0.9-2.5,1.6-4,1.5-5.1c1.9-0.5,3.4-2.4,3.5-2.4c0.5,0,0.8,0.2,0.9,0.8c0.3,1.2,0.8,2.7,1.8,5.5
		l5.5,15.9c0.9,2.4,1.2,3.4,2.7,3.6l1.5,0.2c0.2,0.2,0.3,1.2,0,1.4c-1.9-0.1-4.1-0.1-6.2-0.1c-2,0-3.6,0-5.5,0.1
		c-0.4-0.2-0.5-1.1-0.1-1.4l1.3-0.2c0.9-0.2,1.1-0.5,1.1-0.7c0-0.3-0.3-1.3-0.8-2.8l-1.1-3.5c-0.2-0.7-0.5-0.7-1.9-0.7H117.4z"/>
	<path class="st0" d="M141.9,19.5c0-1,0-1.2-1-1.2h-2.5c-2.9,0-3.8,1.6-5,4.6c-0.5,0.2-1.3,0.2-1.5-0.4c0.9-2.8,1.1-5.3,1.3-6.9
		c0.2-0.1,0.4-0.2,0.6-0.2c0.2,0,0.4,0,0.6,0.2c0.2,0.7,0.3,0.9,3.4,0.9h15.1c2.7,0,3.3,0,3.6-0.9c0.2-0.1,0.3-0.1,0.5-0.1
		c0.2,0,0.5,0.2,0.6,0.3c-0.4,1.4-0.7,4.7-0.6,7c-0.2,0.4-1.3,0.4-1.5,0.1c-0.7-2.6-1.3-4.5-4.3-4.5h-2.4c-1,0-1.1,0.1-1.1,1.2v17.8
		c0,3.8,0.2,4.1,2.1,4.3l1.6,0.2c0.3,0.2,0.3,1.2,0,1.4c-2.6-0.1-4.6-0.1-6.5-0.1c-1.9,0-4,0-6.9,0.1c-0.3-0.2-0.3-1.2,0-1.4
		l1.8-0.2c1.8-0.2,2.1-0.6,2.1-4.3L141.9,19.5L141.9,19.5z"/>
	<path class="st0" d="M168,27c0,1.1,0,1.2,1.1,1.2h2.8c2.1,0,2.6-0.3,3-2.2l0.2-1c0.3-0.3,1.3-0.3,1.5,0c-0.1,1.3-0.1,2.8-0.1,4.3
		s0,3,0.1,4.3c-0.2,0.4-1.2,0.4-1.5,0l-0.2-1c-0.4-1.9-0.9-2.3-3-2.3h-2.8c-1.1,0-1.1,0-1.1,1.3v4.8c0,1.9,0.2,3.2,0.6,3.8
		c0.5,0.7,1.3,1,4.3,1c3.5,0,4.9-0.1,7.1-4.7c0.3-0.5,1.3-0.3,1.5,0.2c-0.2,2.1-1.1,5.4-1.7,6.5c-2.1-0.1-6-0.1-9.3-0.1h-5.3
		c-1.9,0-3.9,0-7,0.1c-0.3-0.2-0.3-1.2,0-1.4l1.9-0.3c1.8-0.3,2.1-0.5,2.1-4.3V22.3c0-3.7-0.2-3.9-2.1-4.3l-1-0.2
		c-0.4-0.2-0.3-1.2,0.1-1.4c1.9,0.1,3.9,0.1,5.8,0.1h8.6c2.6,0,4.9,0,5.4-0.1c0,0.6,0.3,3.6,0.5,6.3c-0.2,0.5-1.1,0.5-1.5,0.2
		c-0.4-1.4-1-2.6-1.5-3.2c-0.8-0.8-2-1.3-4-1.3h-3.2c-1.3,0-1.3,0.1-1.3,1.6L168,27L168,27z"/>
	<path class="st0" d="M191.8,28.2c0,1.4,0.1,1.5,2.5,1.5c1.5,0,2.3-0.4,3.1-1.1c0.7-0.7,1.4-2,1.4-4.4c0-3.6-2.1-6-5.3-6
		c-1.7,0-1.7,0.1-1.7,2.1L191.8,28.2L191.8,28.2z M186.2,23c0-4-0.1-4.5-1.8-4.7l-1.1-0.2c-0.4-0.2-0.4-1.2,0.1-1.4
		c3-0.2,6.2-0.4,10-0.4c3.4,0,6.4,0.5,7.9,1.5c2.4,1.4,3.6,3.4,3.6,6c0,3.6-2.4,5.1-4.3,6.1c-0.4,0.2-0.4,0.4-0.2,0.9
		c2.7,5.4,4.3,8.4,6.3,10.1c1.1,0.8,2.1,1.1,2.7,1.1c0.4,0.2,0.4,0.8,0.2,1c-0.6,0.3-1.9,0.4-3.2,0.4c-3.7,0-6.1-1.3-7.9-4.3
		c-1.3-2.1-2.2-4.1-3.2-6.3c-0.5-1.1-1.1-1.4-2.1-1.4c-1.4,0-1.5,0.1-1.5,0.9v5c0,3.7,0.2,4,2.1,4.3l1.1,0.2c0.3,0.2,0.3,1.2,0,1.4
		c-2.1-0.1-4-0.1-5.9-0.1c-2,0-3.8,0-5.9,0.1c-0.3-0.2-0.3-1.2,0-1.4l1.1-0.2c1.8-0.3,2.1-0.6,2.1-4.3L186.2,23L186.2,23z"/>
	<path class="st0" d="M222.8,23c0-4.1-0.1-4.6-1.8-4.8l-1.3-0.2c-0.4-0.2-0.4-1.1,0.1-1.4c2.7-0.2,5.8-0.4,9.3-0.4
		c3.4,0,5.7,0.4,7.4,1c2.5,0.9,4.9,3.1,4.9,7c0,6.6-6.7,7.6-8.8,7.6c-0.5,0-0.9,0-1.3,0c-0.3-0.2-0.4-0.9-0.1-1.1c3.4-1,4-3.4,4-6.4
		s-1.5-6.2-5.2-6.2c-1.5,0-1.6,0.5-1.6,2.1v17.1c0,3.8,0.2,4.1,2.1,4.4l1.3,0.2c0.4,0.2,0.4,1.1,0,1.4c-2.3-0.1-4.3-0.1-6.2-0.1
		s-3.9,0-6.1,0.1c-0.4-0.2-0.5-1.2-0.1-1.4l1.1-0.2c1.8-0.3,2.1-0.6,2.1-4.4L222.8,23L222.8,23z"/>
	<path class="st0" d="M252.7,28.2c0,1.4,0.1,1.5,2.5,1.5c1.5,0,2.3-0.4,3.1-1.1c0.7-0.7,1.5-2,1.5-4.4c0-3.6-2.1-6-5.3-6
		c-1.7,0-1.7,0.1-1.7,2.1V28.2z M247.1,23c0-4-0.1-4.5-1.8-4.7l-1.1-0.2c-0.4-0.2-0.4-1.2,0.1-1.4c3-0.2,6.2-0.4,10-0.4
		c3.4,0,6.4,0.5,7.9,1.5c2.4,1.4,3.6,3.4,3.6,6c0,3.6-2.4,5.1-4.3,6.1c-0.4,0.2-0.4,0.4-0.2,0.9c2.7,5.4,4.3,8.4,6.3,10.1
		c1,0.8,2.1,1.1,2.7,1.1c0.4,0.2,0.4,0.8,0.2,1c-0.6,0.3-1.9,0.4-3.2,0.4c-3.7,0-6.1-1.3-7.9-4.3c-1.3-2.1-2.2-4.1-3.2-6.3
		c-0.5-1.1-1.1-1.4-2.1-1.4c-1.4,0-1.5,0.1-1.5,0.9v5c0,3.7,0.2,4,2.1,4.3l1.1,0.2c0.3,0.2,0.3,1.2,0,1.4c-2.1-0.1-4-0.1-5.9-0.1
		c-2,0-3.8,0-5.9,0.1c-0.3-0.2-0.3-1.2,0-1.4l1.1-0.2c1.8-0.3,2.1-0.6,2.1-4.3L247.1,23L247.1,23z"/>
	<path class="st0" d="M283.9,17.7c-5,0-7.6,4.6-7.6,11.4c0,4.9,1.7,12.9,8.3,12.9c5.3,0,7.4-5.2,7.4-11.7
		C291.9,23.3,288.9,17.7,283.9,17.7 M298.4,29.7c0,8.8-5.9,14.1-14.6,14.1c-8.1,0-14-5.3-14-13.8c0-8,6-14.2,14.4-14.2
		C292.6,15.8,298.4,21.5,298.4,29.7"/>
	<path class="st0" d="M326.9,38.6c0,1.7,0.1,2.5,0.9,2.7c0.2,0.2,0.1,0.8-0.1,1c-0.7,0.1-1.7,0.2-2.8,0.6c-1.4,0.5-4.9,1-7.2,1
		c-2.8,0-5.1-0.3-8-1.4c-4.7-1.9-8-6.4-8-12.2c0-5.1,2.3-9.5,7.1-12.2c2.8-1.5,6-2.1,9.5-2.1c4.5,0,6.7,1,8,1
		c0.1,1.2,0.2,4.1,0.6,6.5c-0.2,0.5-1.3,0.5-1.5,0.1c-1.3-3.8-3.8-5.7-7.6-5.7c-6.4,0-9.5,5.3-9.5,11.7c0,5.8,2,9.2,4.6,11
		c1.9,1.3,4,1.5,5.5,1.5c2.3,0,2.8-0.5,2.8-3.1v-2.5c0-2.2-0.2-2.4-2.2-2.7l-1.8-0.2c-0.5-0.2-0.5-1.2,0-1.4
		c2.9,0.1,4.9,0.1,6.8,0.1c1.9,0,3.9,0,5.3-0.1c0.3,0.2,0.3,1.2,0,1.4l-0.9,0.2c-1.2,0.2-1.5,0.6-1.5,2.8L326.9,38.6L326.9,38.6z"/>
	<path class="st0" d="M339.9,28.2c0,1.4,0.1,1.5,2.5,1.5c1.5,0,2.3-0.4,3.1-1.1c0.7-0.7,1.5-2,1.5-4.4c0-3.6-2.1-6-5.3-6
		c-1.7,0-1.7,0.1-1.7,2.1L339.9,28.2L339.9,28.2z M334.3,23c0-4-0.1-4.5-1.8-4.7l-1.1-0.2c-0.4-0.2-0.4-1.2,0.1-1.4
		c3-0.2,6.2-0.4,10-0.4c3.4,0,6.4,0.5,7.9,1.5c2.4,1.4,3.6,3.4,3.6,6c0,3.6-2.4,5.1-4.3,6.1c-0.4,0.2-0.4,0.4-0.2,0.9
		c2.7,5.4,4.3,8.4,6.3,10.1c1,0.8,2.1,1.1,2.7,1.1c0.4,0.2,0.4,0.8,0.2,1c-0.6,0.3-1.9,0.4-3.2,0.4c-3.7,0-6.1-1.3-7.9-4.3
		c-1.3-2.1-2.2-4.1-3.2-6.3c-0.5-1.1-1.1-1.4-2.1-1.4c-1.4,0-1.5,0.1-1.5,0.9v5c0,3.7,0.2,4,2.1,4.3l1.1,0.2c0.3,0.2,0.3,1.2,0,1.4
		c-2.1-0.1-4-0.1-6-0.1c-2,0-3.8,0-5.9,0.1c-0.3-0.2-0.3-1.2,0-1.4l1.1-0.2c1.8-0.3,2.1-0.6,2.1-4.3L334.3,23L334.3,23z"/>
	<path class="st0" d="M369.5,31.9c0.9,0,1.1-0.1,0.8-1.2l-1-3.3c-0.6-1.7-1.3-3.9-1.7-4.8c-0.3,0.9-1.1,3.1-1.7,5l-1,3
		c-0.4,1.1-0.2,1.2,0.9,1.2H369.5z M364.9,34c-1,0-1.1,0-1.3,0.8l-1.6,4.7c-0.2,0.8-0.3,1.1-0.3,1.5c0,0.2,0.5,0.5,1.7,0.7l1.2,0.2
		c0.2,0.3,0.3,1.2-0.1,1.4c-1.4-0.1-2.9-0.1-4.6-0.1c-1.4,0-2.3,0.1-4.2,0.1c-0.5-0.2-0.4-1.1-0.1-1.4l1.1-0.1c1-0.1,1.8-0.5,2.5-2
		c0.7-1.6,1.5-3.6,2.5-6.5l3.7-9.9c0.9-2.5,1.6-4,1.5-5.1c1.9-0.5,3.4-2.4,3.5-2.4c0.5,0,0.8,0.2,0.9,0.8c0.3,1.2,0.8,2.7,1.8,5.5
		l5.5,15.9c0.9,2.4,1.2,3.4,2.7,3.6l1.5,0.2c0.2,0.2,0.3,1.2,0,1.4c-1.9-0.1-4.1-0.1-6.2-0.1c-2,0-3.6,0-5.5,0.1
		c-0.4-0.2-0.5-1.1-0.1-1.4l1.3-0.2c0.9-0.2,1.1-0.5,1.1-0.7c0-0.3-0.3-1.3-0.8-2.8l-1.1-3.5c-0.2-0.7-0.5-0.7-1.9-0.7H364.9z"/>
	<path class="st0" d="M383.2,17.8c-0.3-0.3-0.3-1.3,0.1-1.4c1.4,0.1,3.1,0.1,5.1,0.1c1.3,0,2.5,0,4-0.1c0,2.5,1.4,5,3.2,8.8l2.7,5.7
		c0.4,0.8,1.8,3.4,2.4,4.4c0.5-1,1.2-2.2,2.3-4.6l2.1-4.5c1.9-4.2,3-6.3,3.8-9.8c1.9,0.2,2.8,0.1,4,0.1c1.3,0,3.2,0,4.6-0.1
		c0.5,0.2,0.5,1,0.1,1.4l-1.2,0.2c-1.7,0.3-2.5,0.8-2.5,2.9c0,8.3,0.1,12.7,0.3,17.8c0.1,1.9,0.2,2.8,1.8,3l1.3,0.2
		c0.3,0.3,0.3,1.3-0.1,1.4c-1.9-0.1-3.6-0.1-5.6-0.1c-1.8,0-4,0-6,0.1c-0.5-0.2-0.5-1.1-0.1-1.4l1.2-0.2c1.9-0.2,1.9-0.7,1.9-3.2
		L408.6,28v-4.6h-0.1c-3,6.5-6.2,13.2-8.9,20.1c-0.2,0.2-0.5,0.3-0.8,0.3c-0.4,0-0.8-0.1-1-0.2c-1.6-5-6.5-15-8.8-20.3h-0.1
		c-0.2,2.6-0.2,4.4-0.2,6.5c0,2.6-0.1,6.7-0.1,9.1c0,2,0.2,2.6,1.9,2.8l1.6,0.2c0.3,0.3,0.2,1.2-0.1,1.4c-1.5-0.1-3.2-0.1-4.8-0.1
		c-1.3,0-2.8,0-4.5,0.1c-0.5-0.2-0.5-1.2-0.2-1.4l0.7-0.1c2.1-0.4,2.3-0.6,2.5-3.1c0.2-2,0.3-5.5,0.6-9.3c0.2-2.7,0.2-6,0.2-8.2
		c0-2.3-0.9-2.9-2.5-3.2L383.2,17.8z"/>
	<path class="st0" d="M427.7,43.8c-3.7,0-6-1-6.9-1.5c-0.8-0.9-1.3-3.8-1.3-6.5c0.3-0.5,1.2-0.6,1.5-0.1c0.8,2.6,3.5,6.3,7,6.3
		c3,0,4.4-2.1,4.4-4.1c0-3.3-3.1-5.2-5.5-6.4c-2.9-1.5-6.1-3.9-6.1-7.9c0-4.6,3.5-7.7,9.4-7.7c1.3,0,3,0.2,4.6,0.6
		c0.5,0.2,0.9,0.2,1.4,0.3c0.3,0.9,0.7,3.1,0.7,5.8c-0.2,0.5-1.2,0.5-1.6,0.1c-0.7-2.1-2.4-5-5.3-5c-2.7,0-4.1,1.7-4.1,3.8
		c0,1.9,1.7,3.6,3.7,4.6l2.7,1.4c2.5,1.3,5.7,3.7,5.7,8.1C437.9,40.6,433.8,43.8,427.7,43.8"/>
	<path class="st0" d="M48.8,7.8H26.5c-9.2,0-16.7,7.5-16.7,16.7v3.4c1.2-0.2,2.4-0.4,3.6-0.4v0c6.6-0.1,12.8,3.3,18.3,9.3
		c5.4,6,11.7,9.4,18.3,9.3c5.5-0.1,10.8-2.5,15.5-6.9V24.5C65.4,15.3,58,7.8,48.8,7.8"/>
	<path class="st1" d="M41.8,51c-5.5-5.9-11.6-9.3-18.3-9.2c0,0-6.3-0.3-13.8,5.3c0.2,9.1,7.6,16.4,16.7,16.4h22.3
		c3.7,0,7-1.2,9.8-3.2C52.5,59.8,46.8,56.5,41.8,51"/>
	<g class="st2">
		<path class="st1" d="M77.4,59.7c0.9,0.5,2.2,1,3.5,1c1.2,0,2.4-0.6,2.4-1.8c0-0.8-0.6-1.4-2-2.1c-1.6-0.9-3.1-2-3.1-4
			c0-3,2.6-4.9,5.9-4.9c1.8,0,2.9,0.4,3.5,0.8l-1,2.7c-0.5-0.3-1.6-0.7-2.8-0.7c-1.5,0-2.3,0.8-2.3,1.6c0,0.9,0.9,1.4,2.2,2.1
			c1.8,1,3,2.2,3,4c0,3.3-2.8,5-6.1,5c-2.1,0-3.6-0.5-4.3-1.1L77.4,59.7z"/>
		<path class="st1" d="M95.3,63.1c0-0.6,0.1-1.4,0.2-2.2h-0.1c-1,1.8-2.4,2.4-3.6,2.4c-2,0-3.3-1.5-3.3-3.8c0-3.7,2.4-7.6,7.8-7.6
			c1.3,0,2.7,0.2,3.6,0.5l-1.2,5.7c-0.3,1.4-0.5,3.5-0.4,4.9H95.3z M96.2,54.5c-0.2,0-0.6-0.1-0.9-0.1c-2.1,0-3.6,2.5-3.6,4.6
			c0,1.1,0.4,1.8,1.3,1.8c1,0,2.1-1.1,2.6-3.8L96.2,54.5z"/>
		<path class="st1" d="M108.5,62.8c-0.7,0.3-1.8,0.6-3.1,0.6c-2.7,0-4.6-1.6-4.6-4.4c0-3.9,3-6.9,7.1-6.9c0.9,0,1.7,0.2,2.2,0.4
			l-0.8,2.4c-0.4-0.2-0.8-0.3-1.5-0.3c-2.3,0-3.7,1.9-3.7,4c0,1.5,0.9,2.2,2.1,2.2c0.9,0,1.6-0.2,2.2-0.4L108.5,62.8z"/>
		<path class="st1" d="M110.2,63.1l1.2-6.5c0.3-1.6,0.4-3.5,0.6-4.4h2.8c-0.1,0.7-0.1,1.5-0.2,2.2h0.1c0.8-1.4,2-2.5,3.5-2.5
			c0.2,0,0.4,0,0.6,0l-0.6,3.1c-0.2,0-0.3,0-0.5,0c-2,0-3,1.8-3.4,4l-0.8,4H110.2z"/>
		<path class="st1" d="M125.3,63.1c0-0.6,0.1-1.4,0.2-2.2h-0.1c-1,1.8-2.4,2.4-3.6,2.4c-2,0-3.3-1.5-3.3-3.8c0-3.7,2.4-7.6,7.8-7.6
			c1.3,0,2.7,0.2,3.6,0.5l-1.2,5.7c-0.3,1.4-0.5,3.5-0.4,4.9H125.3z M126.3,54.5c-0.2,0-0.6-0.1-0.9-0.1c-2.1,0-3.6,2.5-3.6,4.6
			c0,1.1,0.4,1.8,1.3,1.8c1,0,2.1-1.1,2.6-3.8L126.3,54.5z"/>
		<path class="st1" d="M130.7,63.1l1.4-7.3c0.2-1.4,0.4-2.6,0.6-3.5h2.8l-0.2,1.8h0c1-1.4,2.3-2,3.7-2c1.7,0,2.5,1.1,2.6,2
			c1-1.4,2.3-2,3.7-2c1.7,0,2.7,1.1,2.7,2.9c0,0.5-0.1,1.3-0.2,1.9l-1.2,6.3h-3.1l1.1-5.9c0.1-0.4,0.2-0.9,0.2-1.3
			c0-0.8-0.3-1.3-1.1-1.3c-1.1,0-2.1,1.4-2.5,3.6l-0.9,4.9H137l1.1-6c0.1-0.4,0.2-0.9,0.2-1.2c0-0.7-0.2-1.3-1-1.3
			c-1.1,0-2.2,1.5-2.6,3.7l-0.9,4.9H130.7z"/>
		<path class="st1" d="M158.2,62.5c-1.3,0.6-2.8,0.8-4,0.8c-3.1,0-4.7-1.8-4.7-4.6c0-3.3,2.4-6.7,6.3-6.7c2.2,0,3.8,1.2,3.8,3.2
			c0,2.8-2.7,3.8-7,3.7c0,0.3,0.1,0.8,0.3,1.1c0.4,0.6,1.2,0.8,2.1,0.8c1.2,0,2.2-0.3,3-0.7L158.2,62.5z M155.4,54.4
			c-1.5,0-2.3,1.2-2.6,2.2c2.5,0,3.7-0.3,3.7-1.3C156.5,54.7,156.1,54.4,155.4,54.4z"/>
		<path class="st1" d="M160.2,63.1l1.4-7.3c0.3-1.4,0.4-2.6,0.6-3.5h2.8l-0.2,1.8h0c1-1.4,2.4-2,3.8-2c1.8,0,2.8,1.1,2.8,3
			c0,0.5-0.1,1.3-0.2,1.8l-1.2,6.3h-3.2l1.1-6c0.1-0.4,0.1-0.8,0.1-1.2c0-0.8-0.3-1.3-1.1-1.3c-1,0-2.3,1.3-2.7,3.7l-0.9,4.8H160.2z
			"/>
		<path class="st1" d="M178.9,49.2l-0.6,3h2.3l-0.5,2.4h-2.3l-0.7,3.7c-0.1,0.4-0.2,1-0.2,1.4c0,0.5,0.2,0.9,0.9,0.9
			c0.3,0,0.6,0,0.9,0l-0.4,2.5c-0.4,0.2-1.2,0.2-1.9,0.2c-1.9,0-2.8-1-2.8-2.3c0-0.6,0.1-1.2,0.2-2l0.8-4.3h-1.4l0.4-2.4h1.4
			l0.4-2.3L178.9,49.2z"/>
		<path class="st1" d="M191.8,56.5c0,4-2.7,6.9-6.5,6.9c-2.8,0-4.6-1.8-4.6-4.5c0-3.8,2.6-6.9,6.5-6.9C190.1,52,191.8,54,191.8,56.5
			z M184,58.8c0,1.3,0.6,2.1,1.7,2.1c1.8,0,2.7-2.6,2.7-4.4c0-1-0.4-2.1-1.7-2.1C184.9,54.5,184,57.1,184,58.8z"/>
		<path class="st1" d="M197.6,59.7c0.9,0.5,2.2,1,3.5,1c1.2,0,2.4-0.6,2.4-1.8c0-0.8-0.6-1.4-2-2.1c-1.6-0.9-3.1-2-3.1-4
			c0-3,2.6-4.9,5.9-4.9c1.8,0,2.9,0.4,3.5,0.8l-1,2.7c-0.5-0.3-1.6-0.7-2.8-0.7c-1.5,0-2.3,0.8-2.3,1.6c0,0.9,0.9,1.4,2.2,2.1
			c1.8,1,3,2.2,3,4c0,3.3-2.8,5-6.1,5c-2.1,0-3.6-0.5-4.3-1.1L197.6,59.7z"/>
		<path class="st1" d="M214.3,49.2l-0.6,3h2.3l-0.5,2.4h-2.3l-0.7,3.7c-0.1,0.4-0.2,1-0.2,1.4c0,0.5,0.2,0.9,0.9,0.9
			c0.3,0,0.6,0,0.9,0l-0.4,2.5c-0.4,0.2-1.2,0.2-1.9,0.2c-1.9,0-2.8-1-2.8-2.3c0-0.6,0.1-1.2,0.2-2l0.8-4.3h-1.4l0.4-2.4h1.4
			l0.4-2.3L214.3,49.2z"/>
		<path class="st1" d="M222.9,63.1c0-0.6,0.1-1.4,0.2-2.2H223c-1,1.8-2.4,2.4-3.6,2.4c-2,0-3.3-1.5-3.3-3.8c0-3.7,2.4-7.6,7.8-7.6
			c1.3,0,2.7,0.2,3.6,0.5l-1.2,5.7c-0.3,1.4-0.5,3.5-0.4,4.9H222.9z M223.9,54.5c-0.2,0-0.6-0.1-0.9-0.1c-2.1,0-3.6,2.5-3.6,4.6
			c0,1.1,0.4,1.8,1.3,1.8c1,0,2.1-1.1,2.6-3.8L223.9,54.5z"/>
		<path class="st1" d="M234.3,49.2l-0.6,3h2.3l-0.5,2.4h-2.3l-0.7,3.7c-0.1,0.4-0.2,1-0.2,1.4c0,0.5,0.2,0.9,0.9,0.9
			c0.3,0,0.6,0,0.9,0l-0.4,2.5c-0.4,0.2-1.2,0.2-1.9,0.2c-1.9,0-2.8-1-2.8-2.3c0-0.6,0.1-1.2,0.2-2l0.8-4.3h-1.4l0.4-2.4h1.4
			l0.4-2.3L234.3,49.2z"/>
		<path class="st1" d="M244.9,62.5c-1.3,0.6-2.8,0.8-4,0.8c-3.1,0-4.7-1.8-4.7-4.6c0-3.3,2.4-6.7,6.3-6.7c2.2,0,3.8,1.2,3.8,3.2
			c0,2.8-2.7,3.8-7,3.7c0,0.3,0.1,0.8,0.3,1.1c0.4,0.6,1.2,0.8,2.1,0.8c1.2,0,2.2-0.3,3-0.7L244.9,62.5z M242.1,54.4
			c-1.5,0-2.3,1.2-2.6,2.2c2.5,0,3.7-0.3,3.7-1.3C243.2,54.7,242.8,54.4,242.1,54.4z"/>
	</g>
</g>
</svg>
