<?xml version="1.0" encoding="UTF-8"?>
<svg id="Layer_1" xmlns="http://www.w3.org/2000/svg" viewBox="0 0 746.71 204.13">
  <defs>
    <style>
      .cls-1 {
        fill: #231f20;
      }

      .cls-2 {
        fill: #c4b681;
      }

      .cls-3 {
        fill: #004e38;
      }
    </style>
  </defs>
  <path class="cls-1" d="M686.54,97.94c0,4.66,0,8.67-.25,10.8-.21,1.47-.45,2.59-1.47,2.79-.46.1-1.07.2-1.83.2-.61,0-.81.15-.81.41,0,.35.35.51,1.01.51,2.02,0,5.22-.15,6.38-.15,2.99,0,6.39.3,14.04.3,1.92,0,2.38,0,2.74-1.32.25-1.01.66-4.46.66-5.63,0-.51,0-.91-.41-.91-.35,0-.45.2-.55.76-.35,2.08-.97,3.14-2.28,3.75-1.32.6-3.45.6-4.76.6-5.17,0-5.98-.76-6.08-4.26-.05-1.47,0-6.13,0-7.85v-4c0-.3.05-.51.31-.51,1.21,0,6.23.05,7.2.15,1.88.2,2.58.96,2.84,1.98.15.66.15,1.32.2,1.83,0,.25.1.46.46.46.45,0,.45-.56.45-.96,0-.36.1-2.38.2-3.4.15-2.58.41-3.39.41-3.7s-.15-.41-.36-.41c-.25,0-.46.25-.8.66-.46.51-1.22.66-2.44.76-1.16.1-6.99.1-8.11.1-.31,0-.36-.21-.36-.56v-12.82c0-.36.1-.51.36-.51,1.01,0,6.33.1,7.19.21,2.53.3,3.04.91,3.4,1.82.26.61.3,1.47.3,1.83,0,.46.1.71.46.71s.46-.3.51-.55c.1-.61.2-2.84.26-3.34.15-2.33.4-2.94.4-3.3,0-.25-.06-.46-.3-.46s-.56.16-.81.2c-.41.1-1.22.2-2.18.3-.96.05-11.05.05-12.67.05-1.42,0-4.61-.15-7.3-.15-.76,0-1.12.1-1.12.45s.31.46.86.46c.71,0,1.57.05,1.98.15,1.67.35,2.08,1.17,2.18,2.89.1,1.62.1,3.04.1,10.75v8.92ZM657.3,97.94c0,4.66,0,8.67-.25,10.8-.15,1.47-.46,2.59-1.47,2.79-.46.1-1.07.2-1.83.2-.61,0-.81.15-.81.41,0,.35.35.51,1.01.51,2.02,0,5.22-.15,6.39-.15,1.42,0,4.61.15,7.96.15.56,0,.96-.15.96-.51,0-.26-.25-.41-.81-.41-.76,0-1.87-.1-2.58-.2-1.52-.2-1.82-1.32-1.98-2.74-.25-2.18-.25-6.18-.25-10.85v-20.78l6.38.16c4.52.1,5.89,1.52,5.99,2.84l.05.56c.05.76.15,1.01.56,1.01.31,0,.41-.31.46-.81,0-1.32.15-4.82.15-5.88,0-.76-.05-1.06-.4-1.06-.21,0-.61.1-1.37.25-.76.1-1.87.25-3.5.25h-20.07c-1.67,0-3.6-.1-5.07-.25-1.26-.1-1.77-.61-2.18-.61-.31,0-.46.3-.61.96-.1.41-1.07,5.02-1.07,5.83,0,.56.1.81.46.81.3,0,.46-.2.56-.61.1-.4.35-1.01.86-1.77.76-1.11,1.97-1.37,4.91-1.47l7.55-.21v20.78ZM621.41,96.88c-.2,0-.25-.15-.2-.36l4.67-12.47c.05-.2.15-.46.3-.46s.2.26.25.46l4.56,12.52c.04.15,0,.31-.25.31h-9.33ZM631.7,99.42c.25,0,.41.1.51.35l4.06,10.74c.25.61-.1,1.07-.46,1.17-.51.05-.71.15-.71.46,0,.35.61.35,1.52.4,4.06.1,7.75.1,9.58.1s2.33-.1,2.33-.51c0-.36-.26-.41-.66-.41-.61,0-1.37-.05-2.13-.2-1.06-.25-2.53-.97-4.46-5.53-3.24-7.7-11.36-28.39-12.57-31.17-.51-1.17-.81-1.63-1.26-1.63-.51,0-.82.56-1.42,2.03l-12.72,31.83c-1.01,2.54-1.97,4.26-4.3,4.56-.41.06-1.12.1-1.58.1-.41,0-.6.1-.6.41,0,.4.3.51.96.51,2.64,0,5.42-.15,5.98-.15,1.57,0,3.75.15,5.37.15.56,0,.86-.1.86-.51,0-.31-.15-.41-.76-.41h-.76c-1.57,0-2.03-.66-2.03-1.57,0-.61.25-1.82.76-3.09l2.74-7.25c.1-.3.2-.4.46-.4h11.3ZM592.16,97.94c0,4.66,0,8.67-.25,10.8-.15,1.47-.46,2.59-1.47,2.79-.46.1-1.07.2-1.83.2-.61,0-.81.15-.81.41,0,.35.35.51,1.02.51,2.02,0,5.22-.15,6.38-.15,1.42,0,4.61.15,7.96.15.55,0,.96-.15.96-.51,0-.26-.25-.41-.81-.41-.76,0-1.87-.1-2.58-.2-1.52-.2-1.82-1.32-1.98-2.74-.25-2.18-.25-6.18-.25-10.85v-20.78l6.38.16c4.51.1,5.88,1.52,5.99,2.84l.04.56c.05.76.15,1.01.56,1.01.3,0,.41-.31.46-.81,0-1.32.15-4.82.15-5.88,0-.76-.05-1.06-.41-1.06-.2,0-.6.1-1.36.25-.76.1-1.88.25-3.5.25h-20.08c-1.67,0-3.6-.1-5.07-.25-1.27-.1-1.77-.61-2.18-.61-.31,0-.45.3-.61.96-.1.41-1.06,5.02-1.06,5.83,0,.56.1.81.45.81.31,0,.46-.2.56-.61.1-.4.35-1.01.86-1.77.76-1.11,1.98-1.37,4.92-1.47l7.55-.21v20.78ZM560.53,113.35c2.68,0,5.52-.45,8.06-2.08,3.65-2.38,4.76-5.88,4.76-8.82,0-4.82-2.23-8.21-8.31-12.93l-1.42-1.07c-4.2-3.19-5.37-4.96-5.37-7.3,0-3.05,2.28-5.22,6.04-5.22,3.3,0,4.76,1.52,5.52,2.48,1.07,1.32,1.32,2.89,1.32,3.35,0,.61.15.91.51.91.4,0,.56-.41.56-1.52,0-3.95.2-5.43.2-6.08,0-.35-.25-.5-.71-.61-1.32-.35-3.44-.86-6.74-.86-7.04,0-11.71,4-11.71,9.58,0,4.1,1.93,7.65,7.51,12.01l2.33,1.83c4.2,3.24,4.97,5.62,4.97,8.11,0,2.69-2.23,5.78-6.79,5.78-3.15,0-6.14-1.37-7.25-5.12-.25-.86-.46-1.92-.46-2.58,0-.41-.06-.86-.51-.86-.41,0-.56.55-.61,1.32-.05.81-.25,3.85-.25,6.64,0,1.12.15,1.37.97,1.73,2.18.96,4.46,1.32,7.4,1.32M510.75,110.82c-9.73,0-15.56-8.36-15.56-18.91,0-12.62,6.64-15.87,12.47-15.87,8.32,0,14.85,7.05,14.85,18.4,0,14.65-8.21,16.37-11.76,16.37M508.62,113.35c12.88,0,20.99-9.17,20.99-20.78s-7.86-18.96-20.47-18.96c-15.21,0-20.93,11.2-20.93,19.87s5.88,19.87,20.42,19.87M465.13,97.94c0,4.66,0,8.67-.25,10.8-.15,1.47-.46,2.59-1.47,2.79-.45.1-1.06.2-1.83.2-.6,0-.8.15-.8.41,0,.35.35.51,1.01.51,2.03,0,5.22-.15,6.39-.15,1.42,0,4.61.15,7.96.15.56,0,.96-.15.96-.51,0-.26-.26-.41-.81-.41-.76,0-1.88-.1-2.59-.2-1.52-.2-1.83-1.32-1.97-2.74-.25-2.18-.25-6.18-.25-10.85v-20.78l6.39.16c4.51.1,5.88,1.52,5.98,2.84l.05.56c.05.76.15,1.01.56,1.01.3,0,.4-.31.45-.81,0-1.32.15-4.82.15-5.88,0-.76-.05-1.06-.41-1.06-.2,0-.6.1-1.37.25-.76.1-1.87.25-3.5.25h-20.07c-1.67,0-3.6-.1-5.07-.25-1.27-.1-1.78-.61-2.18-.61-.3,0-.46.3-.6.96-.1.41-1.07,5.02-1.07,5.83,0,.56.1.81.45.81.3,0,.46-.2.56-.61.1-.4.35-1.01.86-1.77.76-1.11,1.98-1.37,4.92-1.47l7.55-.21v20.78ZM412.67,84.46h.15c.91.96,6.54,7.3,12.06,12.77,5.27,5.22,11.76,11.86,14.95,14.9.56.55,1.17,1.11,1.73,1.11.45,0,.66-.46.66-1.57l.56-31.99c.06-2.84.45-3.9,1.88-4.31.61-.15,1.01-.15,1.52-.15.6,0,.91-.15.91-.46,0-.4-.51-.45-1.17-.45-2.49,0-4.41.15-4.97.15-1.06,0-3.5-.15-6.14-.15-.76,0-1.32.05-1.32.45,0,.31.2.46.81.46.71,0,1.93,0,2.69.31,1.21.51,1.67,1.47,1.72,4.56l.51,22.76h-.25c-.86-.81-7.71-8.11-11.15-11.56-7.4-7.35-15.11-15.61-15.72-16.27-.86-.91-1.32-1.57-1.87-1.57-.51,0-.66.71-.66,1.73l-.45,30.01c-.06,4.41-.25,5.88-1.57,6.28-.71.2-1.62.25-2.28.25-.51,0-.81.1-.81.41,0,.46.46.51,1.11.51,2.63,0,5.02-.15,5.47-.15.97,0,2.99.15,6.29.15.71,0,1.17-.1,1.17-.51,0-.31-.3-.41-.86-.41-.81,0-1.77-.05-2.63-.35-1.01-.35-1.67-1.67-1.78-5.63l-.56-21.29ZM378.36,97.94c0,4.66,0,8.67-.25,10.8-.21,1.47-.46,2.59-1.47,2.79-.46.1-1.06.2-1.82.2-.61,0-.81.15-.81.41,0,.35.35.51,1.01.51,2.03,0,5.22-.15,6.39-.15,2.99,0,6.38.3,14.04.3,1.93,0,2.38,0,2.74-1.32.25-1.01.66-4.46.66-5.63,0-.51,0-.91-.41-.91-.35,0-.46.2-.56.76-.35,2.08-.96,3.14-2.28,3.75-1.32.6-3.45.6-4.76.6-5.17,0-5.98-.76-6.08-4.26-.05-1.47,0-6.13,0-7.85v-4c0-.3.05-.51.31-.51,1.21,0,6.23.05,7.2.15,1.88.2,2.58.96,2.84,1.98.15.66.15,1.32.2,1.83,0,.25.1.46.46.46.46,0,.46-.56.46-.96,0-.36.1-2.38.2-3.4.15-2.58.41-3.39.41-3.7s-.15-.41-.35-.41c-.25,0-.46.25-.81.66-.46.51-1.22.66-2.43.76-1.17.1-7,.1-8.1.1-.31,0-.36-.21-.36-.56v-12.82c0-.36.1-.51.36-.51,1.01,0,6.33.1,7.19.21,2.53.3,3.04.91,3.4,1.82.25.61.3,1.47.3,1.83,0,.46.1.71.46.71s.46-.3.51-.55c.1-.61.2-2.84.25-3.34.15-2.33.41-2.94.41-3.3,0-.25-.05-.46-.31-.46s-.56.16-.81.2c-.41.1-1.22.2-2.18.3-.96.05-11.05.05-12.67.05-1.42,0-4.62-.15-7.3-.15-.76,0-1.11.1-1.11.45s.3.46.86.46c.71,0,1.57.05,1.97.15,1.67.35,2.08,1.17,2.18,2.89.1,1.62.1,3.04.1,10.75v8.92ZM322.35,107.58c-.25,1.72-.66,3.7-2.08,4-.76.15-1.11.15-1.52.15-.51,0-.81.1-.81.35,0,.46.4.56.91.56,1.62,0,4.06-.15,5.02-.15.91,0,3.19.15,5.32.15.76,0,1.21-.1,1.21-.56,0-.25-.35-.35-.76-.35-.51,0-1.22-.05-2.13-.25-.86-.2-1.52-.66-1.52-1.62,0-.81.05-1.47.15-2.38l2.64-20.18h.2c1.78,3.8,4.82,10.19,5.27,11.25.61,1.42,4.61,9.18,5.83,11.5.81,1.52,1.32,2.54,1.78,2.54s.71-.46,1.88-2.84l11.05-23.01h.2l3.04,22.3c.2,1.42.05,2.08-.25,2.18-.35.15-.56.31-.56.56,0,.3.31.46,1.47.56,2.03.15,9.02.3,10.29.3.71,0,1.32-.15,1.32-.56,0-.3-.35-.35-.81-.35-.66,0-1.67-.05-3.14-.51-1.52-.46-2.03-1.92-2.48-5.12l-4.61-31.33c-.15-1.07-.46-1.57-.91-1.57s-.76.41-1.12,1.22l-13.79,28.94-13.83-28.59c-.66-1.32-.97-1.57-1.37-1.57s-.71.46-.86,1.32l-5.02,33.05ZM292.05,96.88c-.2,0-.26-.15-.2-.36l4.66-12.47c.05-.2.15-.46.31-.46s.2.26.25.46l4.56,12.52c.05.15,0,.31-.25.31h-9.32ZM302.34,99.42c.25,0,.41.1.51.35l4.05,10.74c.25.61-.1,1.07-.46,1.17-.51.05-.71.15-.71.46,0,.35.61.35,1.52.4,4.06.1,7.76.1,9.58.1s2.33-.1,2.33-.51c0-.36-.25-.41-.66-.41-.6,0-1.37-.05-2.13-.2-1.07-.25-2.54-.97-4.46-5.53-3.24-7.7-11.35-28.39-12.57-31.17-.51-1.17-.81-1.63-1.27-1.63-.51,0-.81.56-1.42,2.03l-12.72,31.83c-1.02,2.54-1.98,4.26-4.31,4.56-.4.06-1.11.1-1.57.1-.4,0-.61.1-.61.41,0,.4.3.51.96.51,2.64,0,5.43-.15,5.98-.15,1.57,0,3.75.15,5.37.15.56,0,.86-.1.86-.51,0-.31-.15-.41-.76-.41h-.76c-1.57,0-2.03-.66-2.03-1.57,0-.61.25-1.82.76-3.09l2.74-7.25c.1-.3.2-.4.46-.4h11.3ZM256.72,77.62c0-.4.1-.61.46-.71.51-.15,1.42-.2,2.69-.2,2.99,0,7.76,2.08,7.76,9.27,0,4.16-1.47,6.49-2.99,7.61-.91.66-1.57.86-3.6.86-1.26,0-2.79-.15-3.85-.51-.35-.15-.46-.35-.46-.91v-15.41ZM250.74,97.94c0,4.66,0,8.67-.25,10.8-.2,1.47-.46,2.59-1.47,2.79-.46.1-1.07.2-1.83.2-.61,0-.81.15-.81.41,0,.35.35.51,1.01.51,2.03,0,5.22-.15,6.19-.15.76,0,4.51.15,7.45.15.66,0,1.02-.15,1.02-.51,0-.26-.2-.41-.61-.41-.61,0-1.72-.1-2.48-.2-1.52-.2-1.82-1.32-1.98-2.79-.25-2.13-.25-6.13-.25-10.85v-.71c0-.3.15-.41.41-.41l4.41.1c.35,0,.66.05.91.35.66.76,2.99,4.21,5.02,6.99,2.84,3.9,4.76,6.29,6.94,7.46,1.32.71,2.58.96,5.42.96h4.82c.61,0,.96-.1.96-.51,0-.26-.2-.41-.61-.41s-.86-.05-1.42-.15c-.76-.15-2.84-.51-5.67-3.45-2.99-3.14-6.49-7.65-11-13.33,5.12-4.15,6.69-7.6,6.69-11.35,0-3.39-2.03-5.98-3.45-6.94-2.74-1.88-6.13-2.18-9.32-2.18-1.57,0-5.43.15-7.15.15-1.07,0-4.26-.15-6.95-.15-.76,0-1.12.1-1.12.45s.31.46.86.46c.71,0,1.57.05,1.97.15,1.67.35,2.08,1.17,2.18,2.89.1,1.62.1,3.04.1,10.75v8.92ZM228.34,113.35c3.24,0,7.09-.35,9.12-1.17.86-.35,1.06-.61,1.32-1.47.51-1.73,1.12-6.14,1.12-6.74,0-.41-.1-.76-.46-.76-.4,0-.5.2-.66,1.01-.2.91-.86,2.39-1.72,3.35-2.03,2.33-4.77,2.84-9.28,2.84-6.79,0-15.97-5.98-15.97-18.04,0-4.92.96-9.73,4.66-13.13,2.23-2.03,5.12-3.14,9.53-3.14,4.66,0,8.62,1.37,10.29,3.14,1.27,1.32,1.92,3.09,1.98,4.66,0,.71.1,1.11.51,1.11.46,0,.56-.4.61-1.16.1-1.02.05-3.8.15-5.48.1-1.77.25-2.38.25-2.79,0-.3-.2-.56-.76-.6-1.52-.15-3.14-.61-5.07-.86-2.33-.31-4.21-.51-7.35-.51-7.55,0-12.37,2.03-16.02,5.37-4.86,4.46-5.93,10.44-5.93,13.89,0,4.92,1.32,10.6,6.29,14.95,4.61,4,10.44,5.52,17.39,5.52M177.75,96.88c-.2,0-.25-.15-.2-.36l4.66-12.47c.05-.2.15-.46.31-.46s.2.26.25.46l4.56,12.52c.05.15,0,.31-.25.31h-9.33ZM188.04,99.42c.26,0,.41.1.51.35l4.05,10.74c.25.61-.1,1.07-.46,1.17-.51.05-.71.15-.71.46,0,.35.61.35,1.52.4,4.05.1,7.75.1,9.58.1s2.33-.1,2.33-.51c0-.36-.26-.41-.66-.41-.61,0-1.37-.05-2.13-.2-1.07-.25-2.53-.97-4.46-5.53-3.25-7.7-11.35-28.39-12.57-31.17-.51-1.17-.81-1.63-1.26-1.63-.51,0-.81.56-1.42,2.03l-12.72,31.83c-1.01,2.54-1.97,4.26-4.31,4.56-.4.06-1.12.1-1.57.1-.4,0-.61.1-.61.41,0,.4.3.51.96.51,2.64,0,5.42-.15,5.98-.15,1.57,0,3.75.15,5.37.15.56,0,.86-.1.86-.51,0-.31-.15-.41-.76-.41h-.76c-1.57,0-2.03-.66-2.03-1.57,0-.61.26-1.82.76-3.09l2.74-7.25c.1-.3.2-.4.46-.4h11.3ZM149.82,113.35c2.69,0,5.52-.45,8.06-2.08,3.65-2.38,4.77-5.88,4.77-8.82,0-4.82-2.23-8.21-8.31-12.93l-1.42-1.07c-4.21-3.19-5.37-4.96-5.37-7.3,0-3.05,2.28-5.22,6.03-5.22,3.29,0,4.76,1.52,5.52,2.48,1.07,1.32,1.32,2.89,1.32,3.35,0,.61.15.91.51.91.4,0,.56-.41.56-1.52,0-3.95.2-5.43.2-6.08,0-.35-.26-.5-.71-.61-1.32-.35-3.45-.86-6.74-.86-7.05,0-11.71,4-11.71,9.58,0,4.1,1.92,7.65,7.5,12.01l2.33,1.83c4.21,3.24,4.97,5.62,4.97,8.11,0,2.69-2.23,5.78-6.79,5.78-3.14,0-6.13-1.37-7.25-5.12-.25-.86-.46-1.92-.46-2.58,0-.41-.05-.86-.51-.86-.4,0-.56.55-.61,1.32-.05.81-.25,3.85-.25,6.64,0,1.12.15,1.37.96,1.73,2.18.96,4.46,1.32,7.4,1.32"/>
  <g>
    <path class="cls-3" d="M39.7,145.28V52.89s16.84-14.86,40.38-14.86,40.28,14.86,40.28,14.86v92.39s-5.15-2.46-13.64-2.46-31.68,6.75-43.9,6.75-23.13-4.29-23.13-4.29"/>
    <path class="cls-2" d="M71.09,126.35s3.23,1.02,7.91.98c4.67-.03,8-.98,8-.98l-1.13,4.5-2.98.61-3.24,16.02-1.23.23-2.96-16.25-2.88-.61-1.49-4.5Z"/>
    <path class="cls-2" d="M94.52,105.9c-.56,6.38-3.33,8.63-3.33,8.63,0,0,.89-.72,1.09-4.77.81-16.54-26.58-24.59-26.58-40.61,0-4.66,3.14-8.15,3.14-8.15,0,0-.59,1.9-.53,4.85.27,14.02,27.42,26.23,26.21,40.04M76.5,61.06c.62-10.29,11.19-7.5,11.19-7.5,0,0-1.65-.96-4.97-1.15-7.92-.45-12.65,6.71-12.65,6.71,0,0-9.9,5.29-9.73,15.88.27,17.57,23.99,25.11,23.55,38.92-.06,1.94-1.58,6.91-7.15,6.55-5.58-.37-8.37-3.27-8.37-3.27,0,0,2.67,5.33,9.94,5.45,9.58.16,11.76-5.94,11.76-5.94,0,0,10.02-7.39,9.58-17.71-.85-20.01-24-23.76-23.16-37.95"/>
    <path class="cls-2" d="M62.37,99.24c10.62.42,10.69,17.57,19.24,16.47.73-.1-1.7,2.37-4.89,2.32-12.68-.18-11.68-17.62-18.32-17.98-1.49-.08,1.95-.89,3.97-.81"/>
    <path class="cls-3" d="M37.46,149.21s8.12,9.11,28.83,9.16c22.31.06,33.57-9.72,54.92-7.93-1.77-1.19-9.78-3.01-14.5-3.01-14.13,0-25.03,6.84-43.99,6.76-17.67-.08-25.26-4.98-25.26-4.98"/>
    <path class="cls-3" d="M37.86,156.85s8.12,9.11,28.83,9.16c22.32.06,33.57-9.72,54.92-7.93-1.77-1.19-9.78-3.01-14.5-3.01-14.13,0-25.03,6.84-44,6.76-17.67-.08-25.25-4.98-25.25-4.98"/>
  </g>
</svg>