<?xml version="1.0" encoding="UTF-8"?>
<svg id="Layer_2" data-name="Layer 2" xmlns="http://www.w3.org/2000/svg" viewBox="0 0 174.02 174.02">
  <defs>
    <style>
      .cls-1 {
        fill: #6dbe4b;
      }

      .cls-2 {
        fill: #007c8a;
      }
    </style>
  </defs>
  <path class="cls-1" d="M87.43,169.42c11.31,0,20.47-9.17,20.47-20.47h-40.95c0,11.31,9.17,20.47,20.47,20.47Z"/>
  <path class="cls-2" d="M156.94,124.67c-9.41-9.8-18.13-19.87-18.13-53.57,0-24.85-17.64-45.58-41.08-50.35v-5.87c0-5.69-4.61-10.29-10.29-10.29s-10.29,4.61-10.29,10.29v5.87c-23.44,4.77-41.09,25.5-41.09,50.35,0,33.69-10.4,44.38-19.52,55.1-4.12,4.85-.68,12.3,5.68,12.3h128.95c7.21,0,10.78-8.63,5.78-13.83ZM131.02,122.03H43.09c-1.15,0-1.88-1.23-1.31-2.24,5.91-10.44,10.75-25.2,10.75-48.69,0-19.25,15.66-34.91,34.91-34.91s34.91,15.66,34.91,34.91c0,23.55,4.09,38.04,10.04,48.6.59,1.04-.17,2.32-1.36,2.32Z"/>
</svg>