<?xml version="1.0" encoding="UTF-8"?>
<svg id="Layer_2" data-name="Layer 2" xmlns="http://www.w3.org/2000/svg" viewBox="0 0 174.02 174.02">
  <defs>
    <style>
      .cls-1 {
        fill: #6dbe4b;
      }

      .cls-2 {
        fill: #007c8a;
      }
    </style>
  </defs>
  <polygon class="cls-1" points="87.5 7.01 87.5 63.83 72.42 58.82 58.77 63.68 58.77 5.81 49.2 5.81 49.2 77.24 72.53 68.95 97.07 77.09 97.07 7.01 87.5 7.01"/>
  <path class="cls-2" d="M151.37,160.64h-3.36c-5.39,0-9.78-4.39-9.78-9.78s4.39-9.78,9.78-9.78h3.28c1.1,0,2-.9,2-2v-3.2s0-.06,0-.09V8.09c0-2.92-2.37-5.29-5.29-5.29H41.01c-11.22,0-20.35,9.13-20.35,20.36v127.7c0,11.22,9.13,20.36,20.35,20.36h110.36c1.1,0,2-.9,2-2v-6.57c0-1.1-.9-2-2-2ZM31.23,23.16c0-5.39,4.39-9.78,9.78-9.78h101.72v117.13H41.01c-3.54,0-6.88.91-9.78,2.51V23.16ZM41.01,160.64c-5.39,0-9.78-4.39-9.78-9.78s4.39-9.78,9.78-9.78h89.16c-1.64,2.98-2.51,6.35-2.51,9.78s.88,6.8,2.51,9.78H41.01Z"/>
</svg>