<?xml version="1.0" encoding="UTF-8"?>
<svg xmlns="http://www.w3.org/2000/svg" viewBox="0 0 174.02 174.02">
  <defs>
    <style>
      .cls-1 {
        isolation: isolate;
      }

      .cls-2 {
        fill: #6dbe4b;
      }

      .cls-3 {
        fill: #007c8a;
        mix-blend-mode: darken;
      }
    </style>
  </defs>
  <g class="cls-1">
    <g id="Layer_2" data-name="Layer 2">
      <g>
        <path class="cls-3" d="M166.77,99.61l-11.1-10.57c-1.31-1.24-1.31-3.32-.02-4.58l11.02-10.66c5.28-5.11,2.85-14.03-4.29-15.76l-14.9-3.61c-1.75-.42-2.8-2.22-2.3-3.96l4.21-14.74c2.02-7.06-4.55-13.58-11.59-11.5l-14.71,4.33c-1.73.51-3.54-.52-3.97-2.27l-3.72-14.87c-1.78-7.13-10.73-9.49-15.79-4.17l-10.57,11.1c-1.24,1.31-3.32,1.31-4.58.02l-10.66-11.02c-5.11-5.28-14.03-2.85-15.76,4.29l-3.61,14.9c-.42,1.75-2.22,2.8-3.96,2.3l-14.74-4.22c-7.06-2.02-13.58,4.55-11.5,11.59l4.33,14.71c.51,1.73-.52,3.54-2.27,3.97l-14.87,3.72c-7.13,1.78-9.49,10.73-4.17,15.79l11.1,10.57c1.31,1.24,1.31,3.32.02,4.58l-11.02,10.66c-5.28,5.11-2.85,14.03,4.29,15.76l14.9,3.61c1.75.42,2.8,2.22,2.3,3.96l-4.22,14.74c-2.02,7.06,4.55,13.58,11.59,11.5l14.71-4.33c1.73-.51,3.54.52,3.97,2.27l3.72,14.87c1.78,7.13,10.73,9.49,15.79,4.17l10.57-11.1c1.24-1.31,3.32-1.31,4.58-.02l10.66,11.02c5.11,5.28,14.03,2.85,15.76-4.29l3.61-14.9c.42-1.75,2.22-2.8,3.96-2.3l14.74,4.22c7.06,2.02,13.58-4.55,11.5-11.59l-4.33-14.71c-.51-1.73.52-3.54,2.27-3.97l14.87-3.72c7.13-1.78,9.49-10.73,4.17-15.79ZM87.01,139.3c-28.88,0-52.3-23.41-52.3-52.3s23.41-52.3,52.3-52.3,52.3,23.41,52.3,52.3-23.41,52.3-52.3,52.3Z"/>
        <circle class="cls-2" cx="87.01" cy="87.01" r="42"/>
      </g>
    </g>
  </g>
</svg>