<?xml version="1.0" encoding="UTF-8"?>
<svg id="Layer_2" data-name="Layer 2" xmlns="http://www.w3.org/2000/svg" viewBox="0 0 174.02 174.02">
  <defs>
    <style>
      .cls-1 {
        fill: #6dbe4b;
      }

      .cls-2 {
        fill: #007c8a;
      }
    </style>
  </defs>
  <g>
    <path class="cls-1" d="M81.53,97.7c-1.61.74-5.5,1.67-10.5,1.67-15.57,0-22.43-9.7-22.43-20.76,0-14.71,10.75-22.18,23.17-22.18,4.82,0,8.71.93,10.44,1.85l-2.16,8.77c-1.85-.74-4.39-1.48-7.73-1.48-6.43,0-11.99,3.77-11.99,12.3,0,7.6,4.51,12.3,12.17,12.3,2.72,0,5.75-.56,7.48-1.24l1.54,8.77Z"/>
    <path class="cls-1" d="M98.74,57.1v15.39h13.53v-15.39h11.12v41.65h-11.12v-16.5h-13.53v16.5h-11.18v-41.65h11.18Z"/>
  </g>
  <path class="cls-2" d="M86.45,139.12c.27-.08.56-.08.82,0l65.25,19.07V15.66H21.5v142.7l64.95-19.24ZM33.57,29.32c0-.8.65-1.46,1.46-1.46h103.96c.8,0,1.46.65,1.46,1.46v110.12c0,.46-.22.89-.58,1.17-.26.19-.56.29-.87.29-.14,0-.28-.02-.41-.06l-51.87-15.35-51.25,15.19c-.43.13-.92.04-1.29-.23-.37-.28-.59-.71-.59-1.17V29.32Z"/>
</svg>