<?xml version="1.0" encoding="UTF-8"?>
<svg id="Layer_2" data-name="Layer 2" xmlns="http://www.w3.org/2000/svg" viewBox="0 0 174.02 174.02">
  <defs>
    <style>
      .cls-1 {
        fill: #6dbe4b;
      }

      .cls-2 {
        fill: #007c8a;
      }
    </style>
  </defs>
  <path class="cls-2" d="M87.07,7.03C41.04,7.59,7.72,43.5,7.06,85.45c-.72,45.98,35.25,80.84,78.57,81.53,45.82.73,80.83-35.39,81.33-78.93.52-44.95-35.19-80.79-79.89-81.02ZM87.03,152.76c-35.72.05-65.53-28.8-65.75-65.1-.21-34.91,27.38-65.34,64.25-66.13,36.57-.78,67.27,28.87,66.99,66.06.04,36.18-29.67,65.12-65.49,65.16Z"/>
  <path class="cls-1" d="M111.15,61.08l-33.19,33.33-15.15-15.01c-3.98-3.95-10.4-3.91-14.35.07-3.94,3.98-3.91,10.4.07,14.35l22.34,22.14c1.98,1.96,4.56,2.94,7.14,2.94s5.21-1,7.19-2.99l40.33-40.5c3.95-3.97,3.94-10.39-.03-14.35-3.97-3.95-10.4-3.94-14.35.03Z"/>
</svg>