<?xml version="1.0" encoding="UTF-8"?>
<svg id="Layer_2" data-name="Layer 2" xmlns="http://www.w3.org/2000/svg" viewBox="0 0 174.02 174.02">
  <defs>
    <style>
      .cls-1 {
        fill: #6dbe4b;
      }

      .cls-2 {
        fill: #007c8a;
      }
    </style>
  </defs>
  <path class="cls-2" d="M87.01,28.23c18.82,0,37.64-.02,56.46,0,12.36.02,19.05,6.75,19.06,19.18.02,26.47.02,52.94,0,79.41-.01,12.15-6.77,18.95-18.86,18.96-37.78.02-75.56.02-113.34,0-12.09,0-18.84-6.81-18.85-18.97-.02-26.61-.03-53.22,0-79.82.01-11.87,6.83-18.72,18.65-18.75,18.96-.04,37.92-.01,56.88-.01ZM86.97,41.27c-18.67,0-37.34-.01-56.01,0-5.17,0-6.45,1.21-6.46,6.39-.04,26.18-.04,52.35,0,78.53,0,5.41,1.22,6.53,6.74,6.53,37.2.01,74.4.01,111.6,0,5.48,0,6.66-1.12,6.67-6.6.03-26.04.03-52.07,0-78.11,0-5.67-1.16-6.74-6.95-6.74-18.53-.01-37.06,0-55.59,0Z"/>
  <path class="cls-2" d="M66.11,120.7c-7.81,0-15.61.05-23.42-.02-4.93-.04-6.44-1.84-6-6.77.92-10.21,9.27-18.27,19.76-18.7,6.4-.26,12.83-.26,19.23,0,10.33.41,18.55,8.15,19.76,18.24.64,5.34-.94,7.2-6.33,7.24-7.67.05-15.33.01-23,.01Z"/>
  <path class="cls-1" d="M83.04,70.38c-.04,9.36-7.76,16.96-17.14,16.86-9.36-.1-16.87-7.83-16.75-17.25.12-9.16,7.73-16.64,16.93-16.65,9.38,0,17,7.65,16.96,17.04Z"/>
  <path class="cls-2" d="M120.3,70.52c-3.21,0-6.42.1-9.62-.02-4.49-.17-7.13-2.69-7.08-6.56.04-3.71,2.58-6.28,6.82-6.38,6.69-.15,13.38-.15,20.07,0,4.26.09,6.8,2.62,6.87,6.33.07,3.87-2.56,6.44-7.03,6.61-3.34.13-6.69.03-10.03.03Z"/>
  <path class="cls-2" d="M119.99,95.6c-3.21,0-6.42.12-9.62-.04-4.22-.2-6.76-2.72-6.78-6.44-.02-3.72,2.51-6.38,6.71-6.48,6.83-.16,13.66-.17,20.49.01,4.16.11,6.66,2.87,6.56,6.61-.09,3.57-2.52,5.92-6.5,6.3-.28.03-.56.03-.84.03-3.35,0-6.69,0-10.04,0Z"/>
</svg>