<?xml version="1.0" encoding="UTF-8"?>
<svg id="Layer_2" data-name="Layer 2" xmlns="http://www.w3.org/2000/svg" viewBox="0 0 174.02 174.02">
  <defs>
    <style>
      .cls-1 {
        fill: #007c8a;
      }

      .cls-2 {
        fill: #6dbe4b;
      }
    </style>
  </defs>
  <path id="Path_1096" data-name="Path 1096" class="cls-2" d="M119.63,104.77l-17.78-17.78,17.75-17.75c4.1-4.1,4.1-10.75,0-14.84-4.1-4.1-10.75-4.1-14.84,0l-17.75,17.75-17.75-17.75c-4.1-4.1-10.75-4.1-14.84,0-4.1,4.1-4.1,10.75,0,14.84l17.77,17.77-17.75,17.75c-4.1,4.1-4.1,10.75,0,14.84s10.75,4.1,14.84,0l17.73-17.73,17.77,17.77c4.1,4.1,10.75,4.1,14.84,0,4.1-4.1,4.1-10.75,0-14.84"/>
  <path class="cls-1" d="M87.07,7.03C41.04,7.59,7.72,43.5,7.06,85.45c-.72,45.98,35.25,80.84,78.57,81.53,45.82.73,80.83-35.39,81.33-78.93.52-44.95-35.19-80.79-79.89-81.02ZM87.03,152.76c-35.72.05-65.53-28.8-65.75-65.1-.21-34.91,27.38-65.34,64.25-66.13,36.57-.78,67.27,28.87,66.99,66.06.04,36.18-29.67,65.12-65.49,65.16Z"/>
</svg>