<?xml version="1.0" encoding="UTF-8"?>
<svg id="Layer_2" data-name="Layer 2" xmlns="http://www.w3.org/2000/svg" viewBox="0 0 174.02 174.02">
  <defs>
    <style>
      .cls-1 {
        fill: #6dbe4b;
      }

      .cls-2 {
        fill: #007c8a;
      }
    </style>
  </defs>
  <path class="cls-1" d="M36.17,35.47h-7.55c-11.3,0-20.47,9.16-20.47,20.47v62.16c0,11.3,9.16,20.47,20.47,20.47h9.74c.34,0,.41-.48.09-.58-8.43-2.52-14.6-10.32-14.6-19.56v-62.82c0-8.37,5.07-15.55,12.29-18.7,0,0,2.21-1.01,5.77-1.46l-5.74.03Z"/>
  <path class="cls-2" d="M145.52,55.05h-38.61c-1.96,0-3.58-1.42-3.96-3.34-1.83-9.24-10.01-16.24-19.8-16.24h-26.8c-10.95,0-19.87,8.73-20.18,19.58,0,.2-.03.39-.03.58v19.57c0,.06,0,.12,0,.19v42.84c0,11.23,9.11,20.34,20.34,20.34h89.05c11.23,0,20.34-9.11,20.34-20.34v-42.84c0-11.23-9.11-20.34-20.34-20.34ZM150.16,118.23c0,2.56-2.08,4.64-4.64,4.64H56.47c-2.56,0-4.64-2.08-4.64-4.64v-16.94c-.01-.13-.04-.26-.04-.4v-45.28c.26-2.49,2.52-4.53,5.02-4.53h26.34c2.31,0,4.21,1.73,4.5,3.96.03.19.06.38.06.58v2.34c0,7.06,5.72,12.78,12.78,12.78h45.03c2.56,0,4.64,2.08,4.64,4.64v42.84Z"/>
</svg>