<?xml version="1.0" encoding="UTF-8"?>
<svg id="Layer_2" data-name="Layer 2" xmlns="http://www.w3.org/2000/svg" viewBox="0 0 174.02 174.02">
  <defs>
    <style>
      .cls-1 {
        fill: #6dbe4b;
      }

      .cls-2 {
        fill: #007c8a;
      }
    </style>
  </defs>
  <path class="cls-2" d="M87.07,7.03C41.04,7.59,7.72,43.5,7.06,85.45c-.72,45.98,35.25,80.84,78.57,81.53,45.82.73,80.83-35.39,81.33-78.93.52-44.95-35.19-80.79-79.89-81.02ZM87.03,152.76c-35.72.05-65.53-28.8-65.75-65.1-.21-34.91,27.38-65.34,64.25-66.13,36.57-.78,67.27,28.87,66.99,66.06.04,36.18-29.67,65.12-65.49,65.16Z"/>
  <path class="cls-1" d="M102.92,40.96c-15.95,0-28.93,12.97-28.93,28.93,0,1.24,0,4.59.85,8.9l-26.97,26.91c-.74.74-1.14,1.73-1.14,2.76v13.89c0,2.16,1.75,3.91,3.91,3.91h13.24c2.16,0,3.91-1.75,3.91-3.91v-6.84h6.64c2.16,0,3.91-1.75,3.91-3.91v-6.71h6.69c1.03,0,2.03-.42,2.75-1.14l6.36-5.98c3.2.85,7.35,1.03,8.78,1.03,15.94,0,28.92-12.97,28.92-28.92s-12.97-28.93-28.92-28.93ZM109.39,70.16c-3.75,0-6.8-3.04-6.8-6.8s3.04-6.8,6.8-6.8,6.8,3.04,6.8,6.8-3.04,6.8-6.8,6.8Z"/>
</svg>