<?xml version="1.0" encoding="UTF-8"?>
<svg id="Layer_2" data-name="Layer 2" xmlns="http://www.w3.org/2000/svg" viewBox="0 0 174.02 174.02">
  <defs>
    <style>
      .cls-1 {
        fill: #6dbe4b;
      }

      .cls-2 {
        fill: #007c8a;
      }
    </style>
  </defs>
  <path class="cls-2" d="M62.88,45.41h92.64c4.36,0,7.89-3.53,7.89-7.89s-3.53-7.89-7.89-7.89H62.88c-4.36,0-7.89,3.53-7.89,7.89s3.53,7.89,7.89,7.89Z"/>
  <path class="cls-2" d="M155.52,79.12H62.88c-4.36,0-7.89,3.53-7.89,7.89s3.53,7.89,7.89,7.89h92.64c4.36,0,7.89-3.53,7.89-7.89s-3.53-7.89-7.89-7.89Z"/>
  <path class="cls-2" d="M155.52,128.61H62.88c-4.36,0-7.89,3.53-7.89,7.89s3.53,7.89,7.89,7.89h92.64c4.36,0,7.89-3.53,7.89-7.89s-3.53-7.89-7.89-7.89Z"/>
  <rect class="cls-1" x="10.61" y="23.02" width="29" height="29" rx="7.29" ry="7.29"/>
  <rect class="cls-1" x="10.61" y="72.51" width="29" height="29" rx="7.29" ry="7.29"/>
  <rect class="cls-1" x="10.61" y="122" width="29" height="29" rx="7.29" ry="7.29"/>
</svg>