<?xml version="1.0" encoding="UTF-8"?>
<svg id="Layer_2" data-name="Layer 2" xmlns="http://www.w3.org/2000/svg" viewBox="0 0 174.02 174.02">
  <defs>
    <style>
      .cls-1 {
        fill: #6dbe4b;
      }

      .cls-2 {
        fill: #007c8a;
      }
    </style>
  </defs>
  <path class="cls-1" d="M87.01,116.91c-7.71,0-15.43-2.59-21.72-7.78L8.59,62.4l9.45-11.46,56.69,46.73c7.11,5.86,17.44,5.86,24.55,0l56.69-46.73,9.45,11.46-56.69,46.73c-6.29,5.19-14.01,7.78-21.72,7.78Z"/>
  <path class="cls-2" d="M148.88,147.73H25.13c-10.61,0-19.24-8.63-19.24-19.24V45.53c0-10.61,8.63-19.24,19.24-19.24h123.75c10.61,0,19.24,8.63,19.24,19.24v82.95c0,10.61-8.63,19.24-19.24,19.24ZM25.13,41.14c-2.42,0-4.39,1.97-4.39,4.39v82.95c0,2.42,1.97,4.39,4.39,4.39h123.75c2.42,0,4.39-1.97,4.39-4.39V45.53c0-2.42-1.97-4.39-4.39-4.39H25.13Z"/>
</svg>