<?xml version="1.0" encoding="UTF-8"?>
<svg id="Layer_2" data-name="Layer 2" xmlns="http://www.w3.org/2000/svg" viewBox="0 0 174.02 174.02">
  <defs>
    <style>
      .cls-1 {
        fill: #6dbe4b;
      }

      .cls-2 {
        fill: #007c8a;
      }
    </style>
  </defs>
  <path class="cls-2" d="M86.82,6.49c44.28.14,80.8,35.49,80.65,80.75-.15,44.93-35.99,80.11-80.02,80.28-45.06.17-80.85-35.74-80.92-80.24C6.46,42.34,42.44,6.86,86.82,6.49ZM87.04,20.21c-36.69-.26-66.82,29.95-66.93,66.64-.1,36.84,30.04,67.07,66.87,67.09,36.74.02,66.82-30.01,66.92-66.69.1-36.8-29.97-67.27-66.86-67.04Z"/>
  <path class="cls-1" d="M80.22,106.87c-.22-5.91,1.67-11.23,5.5-15.88,1.92-2.33,4.25-4.15,6.95-5.5,1.2-.6,2.42-1.19,3.58-1.87,4.86-2.87,7.77-7.2,8.53-12.7,1.44-10.36-5.27-18.38-13.96-20.25-9.93-2.14-19.45,4.31-21.35,13.81-.23,1.15-.32,2.33-.39,3.5-.17,2.95-1.43,5.21-4.16,6.42-5.08,2.25-9.55-1.77-9.49-6.35.07-5.06,1.15-9.94,3.62-14.39,5.1-9.18,12.71-15,23.23-16.56,10.34-1.53,19.35,1.45,26.87,8.66,4.94,4.73,7.85,10.6,8.95,17.35,1.51,9.28-.83,17.59-6.52,24.97-2.78,3.61-6.37,6.31-10.4,8.41-.85.44-1.71.84-2.55,1.3-3.19,1.75-4.75,4.49-4.85,8.09-.03,1.29.02,2.59,0,3.88-.08,3.8-3.12,6.71-6.99,6.72-3.54,0-6.49-3.03-6.56-6.76-.02-.9,0-1.8,0-2.84Z"/>
  <path class="cls-1" d="M93.8,130.03c.06,3.17-1.24,5.6-4.19,6.83-4.4,1.84-9.13-1.15-9.38-5.99-.03-.5,0-1.01,0-1.51.07-3.93,3.03-6.93,6.97-6.87,3.34.05,6.56,2.61,6.59,6.87,0,.22,0,.45,0,.67Z"/>
</svg>