<?xml version="1.0" encoding="UTF-8"?>
<svg id="Layer_2" data-name="Layer 2" xmlns="http://www.w3.org/2000/svg" viewBox="0 0 174.02 174.02">
  <defs>
    <style>
      .cls-1 {
        fill: #6dbe4b;
      }

      .cls-2 {
        fill: #007c8a;
      }
    </style>
  </defs>
  <path class="cls-2" d="M128.59,106.98c-7.26,0-14.19,2.86-19.33,7.84l-3.82-3.82c-1.63-1.63-4.42-.48-4.42,1.83v12.17c0,1.43,1.16,2.59,2.59,2.59h12.17c2.3,0,3.46-2.79,1.83-4.42l-3.46-3.46c3.85-3.69,9.02-5.81,14.44-5.81,11.5,0,20.86,9.36,20.86,20.86s-9.36,20.86-20.86,20.86c-4.2,0-8.24-1.24-11.7-3.59-1.58-1.07-3.73-.66-4.81.92-1.07,1.58-.66,3.73.92,4.81,4.61,3.13,10,4.78,15.59,4.78,15.32,0,27.78-12.46,27.78-27.78s-12.46-27.78-27.78-27.78Z"/>
  <path class="cls-2" d="M128.82,120.78c-1.4,0-2.54,1.14-2.54,2.54v11.45c0,.98.56,1.83,1.37,2.25l7.04,7.04c.5.5,1.15.74,1.79.74s1.3-.25,1.79-.74c.99-.99.99-2.6,0-3.59l-6.93-6.93v-10.23c0-1.4-1.14-2.54-2.54-2.54Z"/>
  <path class="cls-1" d="M81.9,49.05h-38.36c-2.9,0-5.26,2.35-5.26,5.26s2.35,5.26,5.26,5.26h38.36c2.9,0,5.26-2.35,5.26-5.26s-2.35-5.26-5.26-5.26Z"/>
  <path class="cls-1" d="M107.43,49.05h-5.75c-2.9,0-5.26,2.35-5.26,5.26s2.35,5.26,5.26,5.26h5.75c2.9,0,5.26-2.35,5.26-5.26s-2.35-5.26-5.26-5.26Z"/>
  <path class="cls-1" d="M107.43,68.72h-5.75c-2.9,0-5.26,2.35-5.26,5.26s2.35,5.26,5.26,5.26h5.75c2.9,0,5.26-2.35,5.26-5.26s-2.35-5.26-5.26-5.26Z"/>
  <path class="cls-1" d="M107.43,88.39h-5.75c-2.9,0-5.26,2.35-5.26,5.26s2.35,5.26,5.26,5.26h5.75c2.9,0,5.26-2.35,5.26-5.26s-2.35-5.26-5.26-5.26Z"/>
  <path class="cls-1" d="M43.54,79.24h30.18c2.9,0,5.26-2.35,5.26-5.26s-2.35-5.26-5.26-5.26h-30.18c-2.9,0-5.26,2.35-5.26,5.26s2.35,5.26,5.26,5.26Z"/>
  <path class="cls-1" d="M81.9,88.39h-38.36c-2.9,0-5.26,2.35-5.26,5.26s2.35,5.26,5.26,5.26h38.36c2.9,0,5.26-2.35,5.26-5.26s-2.35-5.26-5.26-5.26Z"/>
  <path class="cls-2" d="M93.13,136.54h-.01s-14.73-9.73-14.73-9.73c-1.77-1.17-4.07-1.16-5.83.02l-14.48,9.73-14.34-9.72c-.89-.6-1.92-.91-2.95-.91s-2.01.29-2.88.86l-9.73,6.38V27.09l9.74,6.6c1.82,1.24,4.22,1.2,6.02-.08l14.42-10.35,14.12,9.93c1.79,1.26,4.18,1.28,5.99.04l14.77-10.08,14.55,10.47c1.82,1.31,4.27,1.32,6.1.02l8.93-6.31v71.64c0,.19.17.33.36.3,1.78-.27,3.6-.43,5.43-.43,1.48,0,2.95.1,4.38.28.18.02.35-.12.35-.31V17.37c0-1.51-.55-3.02-1.66-4.04-1.88-1.74-4.64-1.86-6.63-.45l-14.16,10.01-14.5-10.43c-1.8-1.29-4.21-1.32-6.03-.07l-14.8,10.1-14.2-9.98c-1.83-1.29-4.27-1.27-6.09.03l-14.48,10.39-14.74-10c-1.32-.89-2.96-1.26-4.49-.84-2.34.65-3.88,2.75-3.88,5.08v125.54c0,1.48.53,2.96,1.6,3.98,1.83,1.74,4.53,1.93,6.53.61l14.94-9.79,14.38,9.75c1.77,1.2,4.1,1.21,5.88.01l14.52-9.76,14.8,9.78c.88.58,1.89.87,2.9.87.58,0,1.15-.1,1.7-.29.49-.17.72-.72.55-1.21-1.22-3.48-1.93-6.95-2.33-10.12Z"/>
</svg>