<?xml version="1.0" encoding="UTF-8"?>
<svg id="Layer_2" data-name="Layer 2" xmlns="http://www.w3.org/2000/svg" viewBox="0 0 174.02 174.02">
  <defs>
    <style>
      .cls-1 {
        fill: #6dbe4b;
      }

      .cls-2 {
        fill: #007c8a;
      }
    </style>
  </defs>
  <path class="cls-2" d="M147.49,20.67H55.44c-11.59,0-21.03,9.43-21.03,21.03v90.63c0,11.59,9.43,21.03,21.03,21.03h92.05c11.59,0,21.03-9.43,21.03-21.03V41.7c0-11.59-9.43-21.03-21.03-21.03ZM152.29,132.32c0,2.65-2.15,4.8-4.8,4.8H55.44c-2.65,0-4.8-2.15-4.8-4.8V41.7c0-2.65,2.15-4.8,4.8-4.8h92.05c2.64,0,4.8,2.15,4.8,4.8v90.63Z"/>
  <path class="cls-1" d="M36.81,152.75c-8.71-2.6-15.09-10.67-15.09-20.22V41.48c0-9.61,6.45-17.71,15.25-20.27.32-.09.26-.55-.07-.55h-10.25c-11.68,0-21.16,9.47-21.16,21.16v90.37c0,11.68,9.47,21.16,21.16,21.16h10.07c.35,0,.43-.5.09-.6Z"/>
</svg>